<?xml version="1.0" encoding="utf-8"?>
<!-- Generator: Adobe Illustrator 24.1.2, SVG Export Plug-In . SVG Version: 6.00 Build 0)  -->
<svg version="1.1" id="SECOMP_2024" xmlns="http://www.w3.org/2000/svg" xmlns:xlink="http://www.w3.org/1999/xlink" x="0px"
	 y="0px" viewBox="0 0 2050.5 397.1" style="enable-background:new 0 0 2050.5 397.1;" xml:space="preserve">
<style type="text/css">
	.st0{display:none;fill:#5B15B5;}
	.st1{fill:#22BEA0;}
	.st2{fill:#FFFFFF;}
</style>
<rect x="-124.3" y="-124.6" class="st0" width="2300" height="647"/>
<path class="st1" d="M1962.6,250.4v-33.6h-44.3c-6.5,0.1-12.8-1.5-18.5-4.6c-5.3-2.9-9.8-7.1-12.9-12.3s-4.7-11.1-4.7-17.1
	c0-3.2,0.4-6.4,1.2-9.5c0.8-3,1.9-6,3.3-8.8l39.2-78.4h47.2l-44.8,87.8c-0.1,0.6-0.3,1.3-0.5,1.9c-0.2,0.5-0.2,1.1-0.2,1.6
	c0,0.8,0.3,1.6,0.9,2.2c0.9,0.6,2,0.9,3.1,0.8h31.2V133h42.5v47.4h20.2v36.4h-20.2v33.6H1962.6L1962.6,250.4z"/>
<path class="st1" d="M1787.4,250.4c-6.6,0.1-13.2-1.5-19-4.7c-5.3-2.9-9.7-7.2-12.8-12.4c-3-5.2-4.6-11.1-4.6-17.1
	c0-5.5,1.4-11,4-15.8c2.6-5,6.4-9.4,11-12.8l48.1-33.8c2.7-1.9,5-4.2,6.7-7c1.5-2.5,2.2-5.3,2.2-8.2c0.1-2.8-0.6-5.5-2.1-7.9
	c-1.4-2.2-3.4-3.9-5.8-4.9c-2.7-1.3-5.6-1.9-8.6-1.8h-48.8V86.2h52.8c10.6,0,20.1,2.3,28.3,7c8,4.5,14.7,11,19.5,18.8
	c4.8,7.9,7.3,17,7.2,26.3c0,9.7-2,18.3-6,25.7s-10.4,14-19.4,19.6l-38,24.9c-0.5,0.1-0.9,0.4-1.2,0.8c-0.3,0.4-0.5,0.8-0.5,1.3
	c-0.1,0.6,0.3,1.3,0.8,1.6c0.7,0.4,1.4,0.5,2.2,0.5h64.8v37.7L1787.4,250.4L1787.4,250.4z"/>
<path class="st1" d="M1534.4,311.6V85.7h99.1c15.9,0,30.3,3.4,43.2,10.3c12.6,6.7,23.3,16.6,30.8,28.7c7.6,12.3,11.5,26.6,11.5,42.9
	c0,15.9-3.8,30.1-11.5,42.6c-7.5,12.3-18.1,22.4-30.8,29.2c-12.9,7-27.3,10.5-43.2,10.5h-37.4v61.6L1534.4,311.6L1534.4,311.6z
	 M1596.1,200.3h30.7c5.3,0.1,10.6-1.3,15.2-3.9c4.5-2.6,8.3-6.5,10.8-11.1c2.7-4.8,4-10.6,4-17.3c0-6.9-1.3-12.7-4-17.6
	c-2.5-4.6-6.2-8.4-10.8-11c-4.7-2.5-9.9-3.8-15.2-3.7h-30.7V200.3z"/>
<path class="st1" d="M1474,81.5L1474,81.5c-11.6,0-22.2,6.5-27.5,16.9c-1.2,1.4-2.3,3-3.2,4.6l0,0l-53.1,91.9l-53.1-91.9l0,0
	c-0.9-1.6-2-3.2-3.2-4.6c-5.3-10.4-15.9-16.9-27.5-16.9l0,0c-17,0-30.8,13.8-30.8,30.8v199.3h61.6V200.9l26.7,46.3
	c4.9,8.3,13.4,13.8,23,14.9h0.3c0.3,0,0.6,0.1,0.9,0.1h4c0.3,0,0.6,0,0.9-0.1h0.3c9.6-1.1,18.1-6.6,23-14.9l26.7-46.3v110.7h61.6
	V112.3c0.2-16.9-13.4-30.6-30.2-30.8C1474.2,81.5,1474.1,81.5,1474,81.5z"/>
<path class="st1" d="M1131.5,315.8c-17.9,0-34.2-3-49.1-8.9c-14.3-5.6-27.3-14-38.2-24.8c-10.6-10.7-19.1-23.4-24.8-37.3
	c-11.9-29.7-11.9-62.7,0-92.4c11.5-28.5,34.3-51,63-62c14.8-5.9,31.2-8.9,49.1-8.9c18.1,0,34.5,3,49.2,8.9
	c14.3,5.6,27.3,14,38.2,24.7c10.8,10.6,19.2,23.3,24.8,37.3c5.9,14.7,8.8,30.4,8.7,46.3c0.1,15.8-2.8,31.5-8.7,46.1
	c-5.7,14-14.1,26.7-24.8,37.3c-11,10.7-23.9,19.2-38.2,24.8C1166,312.8,1149.6,315.8,1131.5,315.8z M1131.5,264.8
	c8.3,0.1,16.5-1.6,24-5c7.2-3.3,13.6-8.2,18.7-14.2c5.3-6.2,9.3-13.4,11.9-21.1c2.7-8.3,4.1-17,4-25.8c0.1-8.8-1.3-17.6-4-26
	c-2.5-7.8-6.6-14.9-11.9-21.1c-5.2-5.9-11.5-10.7-18.7-14c-15.3-6.7-32.6-6.7-47.9,0c-7.2,3.2-13.6,8-18.7,14
	c-5.3,6.2-9.3,13.4-11.9,21.1c-2.8,8.4-4.3,17.2-4.2,26c-0.1,8.8,1.3,17.5,4.2,25.8c2.7,7.7,6.7,14.8,11.9,21.1
	c5.1,6.1,11.5,10.9,18.7,14.2C1115.1,263.2,1123.3,264.9,1131.5,264.8z"/>
<path class="st1" d="M958.2,311.6c-19.4-0.2-36.7-3.1-52-8.7s-28.3-13.4-39-23.6c-10.7-10-19.1-22.2-24.7-35.7
	c-5.8-14.3-8.8-29.6-8.6-45c0-16.3,2.8-31.4,8.6-45c5.6-13.5,14-25.7,24.7-35.7c11.3-10.4,24.6-18.5,39-23.7
	c15.3-5.7,32.6-8.6,52-8.6h34.5v50h-32.6c-10.1,0-19.1,1.6-26.9,4.8c-7.5,3-14.3,7.5-19.8,13.4c-5.4,5.8-9.6,12.6-12.3,20
	c-5.6,16-5.6,33.4,0,49.4c2.7,7.4,6.9,14.2,12.3,20c5.6,5.8,12.3,10.4,19.8,13.4c8.6,3.3,17.7,5,26.9,4.8h32.6v50h-34.5V311.6z"/>
<path class="st1" d="M709.6,144.4c1.8-2.8,4.4-5.1,7.4-6.5c3.3-1.6,6.9-2.3,10.5-2.3h85.8v-50h-98.1c-11.8-0.1-23.5,2.8-33.9,8.4
	c-10,5.3-18.5,13.2-24.5,22.9s-9,20.8-9,33.2c0,8.6-1.6,85.5-1.6,95.2c-0.2,12,3,23.8,9.2,34c6.1,10,14.7,18.1,25,23.6
	c10.7,5.8,22.7,8.7,34.9,8.6h98v-50h-85.2c-3.8,0.1-7.6-0.8-11-2.4c-3.1-1.5-5.8-3.9-7.6-6.8c-1.8-3.1-2.8-6.6-2.7-10.2v-19.7H802
	v-49.7h-95.2v-18.3C706.7,150.9,707.7,147.4,709.6,144.4z"/>
<path class="st1" d="M449.3,311.6v-50h96.2c3.7,0.1,7.3-0.8,10.5-2.6c2.9-1.7,5.3-4.2,6.9-7.1c1.7-2.9,2.6-6.3,2.6-9.7
	c0-3.5-0.9-7-2.6-10c-1.6-2.9-4-5.4-6.9-7.1c-3.2-1.8-6.8-2.7-10.5-2.6h-31.9c-13.6,0-25.8-2.7-36.8-8.1
	c-10.7-5.2-19.8-13.2-26.3-23.1c-6.6-10-9.8-22.1-9.8-36.3c0-14,3.1-26.1,9.4-36.5c6.1-10.2,14.8-18.6,25.2-24.2
	c10.8-5.9,22.9-8.9,35.2-8.7h101.3v50h-93.6c-3.2,0-6.4,0.8-9.2,2.4c-5.4,3.1-8.6,8.8-8.6,15c0,3.1,0.8,6.2,2.3,8.9
	c3.1,5.6,9.1,9.1,15.5,8.9h33.9c15.1,0,28.1,2.8,39,8.4c10.6,5.2,19.4,13.3,25.5,23.4c6,10,9,21.8,9,35.3c0,15.5-3.2,28.8-9.5,39.9
	c-5.9,10.7-14.7,19.4-25.5,25.2c-10.9,5.8-23,8.7-35.3,8.6L449.3,311.6z"/>
<g>
	<path class="st1" d="M158.8,261.9L58.7,204.2c-16.5-9.5-27.5-24.8-32.1-41.8s-2.6-35.8,6.9-52.2c10-17.3,21.8-23.4,34-30.2l0.1-0.1
		c-17.1,11.2-17.2,40.1,1.8,51l117.2,67.7l-0.9,48.1C185.6,260.4,170.7,268.8,158.8,261.9z"/>
	<path class="st2" d="M105,137.6c-5.3,3-5.3,10.7,0,13.7l-35.4-20.5c-19-11-18.9-39.8-1.8-51l91.5-52.4c11.8-6.8,26.6,1.7,26.6,15.3
		l0.3,38.6c0,6.3-3.3,12.1-8.7,15.2L105,137.6z"/>
	<path class="st1" d="M135.4,355.9L32.1,296.2c-4.7-2.7-7.5-7.7-7.5-13v-39.4c0-13.9,15-22.6,27.1-15.6l103.4,59.7
		c4.7,2.7,7.5,7.7,7.5,13v39.4C162.5,354.1,147.5,362.8,135.4,355.9z"/>
	<path class="st1" d="M214.6,135.1l100.1,57.8c16.5,9.5,27.5,24.8,32.1,41.8s2.6,35.8-6.9,52.2c-10,17.3-21.8,23.4-34,30.2l-0.1,0.1
		c17.1-11.2,17.2-40.1-1.8-51l-117.2-67.7l0.9-48.1C187.8,136.7,202.7,128.3,214.6,135.1z"/>
	<path class="st2" d="M268.4,259.5c5.3-3,5.3-10.7,0-13.7l35.4,20.5c19,11,18.9,39.8,1.8,51l-91.3,52.4
		c-11.8,6.8-26.6-1.7-26.6-15.3l-0.3-38.6c0-6.3,3.3-12.1,8.7-15.2L268.4,259.5z"/>
	<path class="st1" d="M238,41.2l103.3,59.7c4.7,2.7,7.5,7.7,7.5,13v39.4c0,13.9-15,22.6-27.1,15.6l-103.4-59.7
		c-4.7-2.7-7.5-7.7-7.5-13V56.8C210.9,42.9,225.9,34.3,238,41.2z"/>
</g>
</svg>
