<svg width="29" height="28" viewBox="0 0 29 28" fill="none" xmlns="http://www.w3.org/2000/svg">
<g clip-path="url(#clip0_2076_509)">
<path d="M14.5 2.52262C18.2381 2.52262 18.6809 2.53684 20.1571 2.60411C21.5221 2.66645 22.2634 2.8945 22.7568 3.08623C23.4102 3.3402 23.8766 3.64361 24.3665 4.1335C24.8565 4.62339 25.1598 5.08977 25.4138 5.74317C25.6055 6.23656 25.8335 6.97791 25.8959 8.3428C25.9632 9.81914 25.9774 10.2619 25.9774 14C25.9774 17.7382 25.9632 18.181 25.8959 19.6572C25.8335 21.0222 25.6055 21.7634 25.4138 22.2568C25.1598 22.9102 24.8564 23.3767 24.3665 23.8666C23.8766 24.3565 23.4102 24.6599 22.7568 24.9138C22.2634 25.1055 21.5221 25.3337 20.1571 25.3959C18.6811 25.4633 18.2383 25.4775 14.5 25.4775C10.7616 25.4775 10.3188 25.4633 8.8428 25.3959C7.4778 25.3335 6.73656 25.1055 6.24317 24.9138C5.58977 24.6599 5.12328 24.3565 4.63339 23.8666C4.1435 23.3766 3.84009 22.9102 3.58623 22.2568C3.3945 21.7635 3.16634 21.0222 3.10411 19.6572C3.03673 18.181 3.02252 17.7382 3.02252 14C3.02252 10.2619 3.03673 9.81914 3.10411 8.34291C3.16645 6.97791 3.3945 6.23656 3.58623 5.74317C3.84009 5.08977 4.1435 4.62339 4.63339 4.1335C5.12339 3.6435 5.58977 3.3402 6.24317 3.08623C6.73645 2.8945 7.4778 2.66645 8.8428 2.60411C10.319 2.53684 10.7618 2.52262 14.5 2.52262ZM14.5 0C10.6978 0 10.221 0.0160781 8.72784 0.0842187C7.23761 0.15225 6.21987 0.388937 5.32945 0.735C4.40873 1.09277 3.62802 1.5715 2.8497 2.34981C2.07139 3.12812 1.59277 3.90884 1.235 4.82945C0.888828 5.71998 0.65225 6.73772 0.584219 8.22784C0.516078 9.72103 0.5 10.1978 0.5 14C0.5 17.8022 0.516078 18.279 0.584219 19.7722C0.65225 21.2624 0.888828 22.2801 1.235 23.1705C1.59266 24.0912 2.07139 24.872 2.8497 25.6503C3.62802 26.4286 4.40873 26.9072 5.32945 27.265C6.21998 27.6112 7.23761 27.8477 8.72773 27.9158C10.221 27.9839 10.6978 28 14.5 28C18.3022 28 18.779 27.9839 20.2722 27.9158C21.7623 27.8477 22.78 27.6112 23.6704 27.265C24.5912 26.9073 25.3719 26.4286 26.1502 25.6503C26.9285 24.872 27.4072 24.0913 27.765 23.1705C28.1111 22.28 28.3477 21.2624 28.4158 19.7723C28.4839 18.279 28.5 17.8022 28.5 14C28.5 10.1978 28.4839 9.72103 28.4158 8.22784C28.3477 6.73772 28.1111 5.71998 27.765 4.82956C27.4072 3.90884 26.9285 3.12812 26.1502 2.34981C25.3719 1.5715 24.5912 1.09266 23.6705 0.735C22.78 0.388937 21.7623 0.15225 20.2722 0.0842187C18.779 0.0160781 18.3022 0 14.5 0ZM14.5 6.81078C10.5295 6.81078 7.31078 10.0297 7.31078 14C7.31078 17.9705 10.5295 21.1892 14.5 21.1892C18.4704 21.1892 21.6892 17.9705 21.6892 14C21.6892 10.0296 18.4704 6.81078 14.5 6.81078ZM14.5 18.6667C11.9227 18.6667 9.8333 16.5773 9.8333 14C9.8333 11.4227 11.9227 9.3333 14.5 9.3333C17.0773 9.3333 19.1667 11.4227 19.1667 14C19.1667 16.5773 17.0773 18.6667 14.5 18.6667ZM23.6532 6.52673C23.6532 7.45467 22.9011 8.20673 21.9732 8.20673C21.0453 8.20673 20.2932 7.45467 20.2932 6.52673C20.2932 5.59891 21.0453 4.84673 21.9732 4.84673C22.9011 4.84673 23.6532 5.59891 23.6532 6.52673Z" fill="#22BEA0"/>
</g>
<defs>
<clipPath id="clip0_2076_509">
<rect width="28" height="28" fill="white" transform="translate(0.5)"/>
</clipPath>
</defs>
</svg>
