<?xml version="1.0" encoding="utf-8"?>
<!-- Generator: Adobe Illustrator 24.1.2, SVG Export Plug-In . SVG Version: 6.00 Build 0)  -->
<svg version="1.1" id="Camada_1" xmlns="http://www.w3.org/2000/svg" xmlns:xlink="http://www.w3.org/1999/xlink" x="0px" y="0px"
	 viewBox="0 0 211 61.6" style="enable-background:new 0 0 211 61.6;" xml:space="preserve">
<style type="text/css">
	.st0{fill:#5D90FB;}
	.st1{fill:#E0A719;}
	.st2{fill:#202020;}
</style>
<g>
	<path class="st0" d="M168.3,27.1c0-8.8,7.1-16,15.9-16V0c-0.1,0-0.2,0-0.4,0c-14.6,0.2-26.5,12.1-26.7,26.8c0,0.1,0,0.2,0,0.4
		L168.3,27.1L168.3,27.1z"/>
	<path class="st0" d="M168.3,27.1h-11.1c0,0.2,0,0.2,0,0.4c0.2,14.7,12,26.6,26.7,26.8c0.1,0,0.2,0,0.4,0V43.1
		C175.5,43.1,168.4,36,168.3,27.1L168.3,27.1z"/>
	<path class="st1" d="M203.1,8.4c-5.1,5.1-12.8,6.1-18.8,2.8v12c9.1,2.6,19.2,0.4,26.4-6.6c0.1-0.1,0.2-0.2,0.2-0.2L203.1,8.4z"/>
	<path class="st0" d="M203.1,28.4c-5.1,5.1-12.8,6.1-18.8,2.8v12c9.1,2.6,19.2,0.4,26.4-6.6c0.1-0.1,0.2-0.2,0.2-0.2L203.1,28.4z"/>
	<path class="st2" d="M19.8,7.4C14,7.4,9.2,9.3,5.5,13C1.8,16.9,0,21.6,0,27.3c0,5.7,1.9,10.6,5.6,14.3c3.8,3.8,8.7,5.6,14.6,5.6
		c6,0,12.9-2.8,16.7-8.6l-5.6-3.2c-2.3,3.7-5.9,5.6-10.9,5.6s-6.6-0.9-9.1-2.8c-2.5-1.9-4-4.5-4.7-7.9h31.7c0.2-1,0.2-2,0.2-3
		c0-5.5-1.7-10.2-5.3-14.2C29.9,9.3,25.4,7.4,19.8,7.4L19.8,7.4z M6.7,24.6c0.6-3.3,2-6,4.3-8c2.3-2,5.3-3,8.8-3s5.7,0.9,7.9,2.8
		c2.3,1.9,3.7,4.6,4.2,8.2H6.7z"/>
	<path class="st2" d="M107.3,26c-2.1-0.6-4.2-1.2-6.2-1.8c-2.1-0.6-3.8-1.3-5.3-2.2c-1.5-0.9-2.2-2-2.2-3.5c0-1.4,0.6-2.8,2-3.7
		c1.3-0.9,2.9-1.3,4.8-1.3c4,0,6.7,1.6,8.1,4.9l5.5-3.1c-1.2-2.5-3-4.4-5.4-5.8c-2.4-1.4-5.1-2.1-8.2-2.1c-3.1,0-7,1.1-9.6,3.2
		c-2.5,2.1-3.8,4.8-3.8,8.1s0.7,4.6,2.2,6.2c1.5,1.6,3.2,2.8,5.3,3.4c2.1,0.6,4.1,1.3,6.2,1.9c2.1,0.6,3.8,1.4,5.3,2.3
		c1.5,0.9,2.2,2.1,2.2,3.5c0,1.5-0.7,3.1-2.1,3.9c-1.4,0.9-3.2,1.3-5.4,1.3c-2.2,0-4.3-0.5-6-1.6c-1.7-1.1-2.8-2.5-3.4-4.3l-5.7,3.2
		c1.1,2.7,3,4.8,5.6,6.5c2.6,1.6,5.8,2.4,9.5,2.4c3.7,0,7.5-1.1,10.2-3.1c2.6-2.1,4-4.8,4-8.3s-0.7-4.8-2.1-6.5
		C111.2,27.7,109.4,26.6,107.3,26L107.3,26z"/>
	<path class="st2" d="M144.8,8.3l-11.1,29.1L121,8.3h-7l16.5,37.9l-0.7,1.4c-2.1,5.5-5.5,8.1-10.2,7.8v6.2c3.8,0.2,7.1-0.7,10-3
		c2.9-2.3,5.1-5.5,6.8-9.8l15.5-40.3L144.8,8.3L144.8,8.3z"/>
	<path class="st2" d="M62.6,7.1h-1.7c-5.3,0-9.8,1.9-13.6,5.8c-3.7,3.9-5.6,8.6-5.6,14.2s1.9,10.3,5.6,14.2
		c3.7,3.9,8.3,5.8,13.6,5.8h1.7c4.9,0,9.1-1.6,12.6-4.9v4.9h6.5V29c0-0.6,0.1-1.3,0.1-1.9c0-5.6-1.9-10.3-5.6-14.2
		C72.5,9.1,67.9,7.1,62.6,7.1L62.6,7.1z M71.3,36.8c-2.6,2.6-5.7,3.9-9.6,3.9c-3.8,0-7-1.3-9.6-3.9c-2.6-2.6-3.8-5.8-3.8-9.7
		s1.3-7.1,3.8-9.7c2.6-2.6,5.7-3.9,9.6-3.9c3.8,0,7,1.3,9.6,3.9c2.6,2.6,3.8,5.8,3.8,9.7S73.9,34.2,71.3,36.8z"/>
</g>
</svg>
