<?xml version="1.0" encoding="utf-8"?>
<!-- Generator: Adobe Illustrator 24.1.2, SVG Export Plug-In . SVG Version: 6.00 Build 0)  -->
<svg version="1.1" id="LOGO_EDGE" xmlns="http://www.w3.org/2000/svg" xmlns:xlink="http://www.w3.org/1999/xlink" x="0px" y="0px"
	 viewBox="0 0 86.1 52.7" style="enable-background:new 0 0 86.1 52.7;" xml:space="preserve">
<style type="text/css">
	.st0{fill:#009DB4;}
	.st1{fill:#173C6B;}
</style>
<g id="logo_edge">
	<path id="Caminho_27" class="st0" d="M48.8,3.6v33.7h-6.3v-4.1c-1.8,2.7-4.9,4.3-8.2,4.1c-7.5,0-13.1-4.9-13.1-13.3
		c0-8.8,5.5-13.3,12.9-13.3c2.7,0,6.9,1.4,8.3,4.1V3.6H48.8z M26.2,24.2c-0.1,4,3.1,7.4,7.1,7.5c4,0.1,7.4-3.1,7.5-7.1
		c0-0.1,0-0.3,0-0.4c0.1-4-3.1-7.3-7.1-7.4c-0.1,0-0.2,0-0.3,0c-3.9-0.1-7.1,2.9-7.2,6.8C26.2,23.7,26.2,23.9,26.2,24.2"/>
	<path id="Caminho_28" class="st0" d="M65.2,27.6c0.4,3.1,3.1,5.4,7.6,5.4c2.3,0,5.4-0.9,6.8-2.4l4,4c-2.7,2.8-7.1,4.1-10.9,4.1
		c-8.8,0-14-5.4-14-13.6c0-7.7,5.3-13.3,13.5-13.3c8.5,0,13.8,5.3,12.8,15.7L65.2,27.6z M79,22.4c-0.4-3.3-3-4.9-6.6-4.9
		c-3.4,0-6.2,1.6-7.1,4.9H79z"/>
	<path id="Caminho_29" class="st1" d="M62.8,32.9c2.9-1.4,4.8-4.2,5.2-7.3h0c0-0.1,0-0.2,0-0.3c0.1-0.6,0.1-1.2,0.1-1.9
		c0-0.8-0.1-1.6-0.2-2.3c-0.6-4.5-3.7-8.3-8-9.7c-1.5-0.6-3-0.9-4.6-0.8h0h0c-0.3,0-0.6,0-0.9,0v0.1c-6.8,0.2-12.1,5.9-11.9,12.7
		c0,0,0,0.1,0,0.1c0,7.9,4.9,12.8,12.9,12.8c3.1,0,6.4,1.6,6.4,5.1s-2.8,5.5-6.4,5.5s-6.6-2.2-6.6-5.5h-6.2
		c0,6.9,5.5,11.3,12.9,11.3s12.7-4.3,12.7-11.3C68.1,38.1,67.1,35.1,62.8,32.9 M55.4,30.5c-3.7,0-6.6-2.6-6.6-7.1s3-7.1,6.6-7.2
		c0.8,0,1.7,0.2,2.5,0.5c0,0,0.1,0,0.1,0c0.2,0.1,0.3,0.2,0.5,0.2c2.3,1.3,3.7,3.8,3.6,6.4c0,0.7-0.1,1.4-0.3,2.1
		C61,28.5,58.4,30.6,55.4,30.5"/>
	<rect id="Retângulo_18" x="42.5" y="40.4" class="st1" width="6.2" height="0.6"/>
	<rect id="Retângulo_19" x="42.5" y="39.5" class="st1" width="6.2" height="0.6"/>
	<rect id="Retângulo_20" x="42.5" y="38.6" class="st0" width="6.2" height="0.6"/>
	<rect id="Retângulo_21" x="42.5" y="37.7" class="st0" width="6.2" height="0.6"/>
	
		<rect id="Retângulo_22" x="81.8" y="29.4" transform="matrix(0.704 -0.7102 0.7102 0.704 1.4285 67.7869)" class="st0" width="0.6" height="5.6"/>
	
		<rect id="Retângulo_23" x="82.4" y="28.7" transform="matrix(0.704 -0.7102 0.7102 0.704 2.0629 68.0451)" class="st0" width="0.6" height="5.6"/>
	
		<rect id="Retângulo_24" x="83" y="28.1" transform="matrix(0.704 -0.7102 0.7102 0.704 2.6997 68.3031)" class="st1" width="0.6" height="5.6"/>
	
		<rect id="Retângulo_25" x="83.6" y="27.5" transform="matrix(0.704 -0.7102 0.7102 0.704 3.3358 68.5615)" class="st1" width="0.6" height="5.6"/>
	<rect id="Retângulo_26" x="42.5" y="0" class="st1" width="6.2" height="0.6"/>
	<rect id="Retângulo_27" x="42.5" y="0.9" class="st1" width="6.2" height="0.6"/>
	<rect id="Retângulo_28" x="42.5" y="1.8" class="st0" width="6.2" height="0.6"/>
	<rect id="Retângulo_29" x="42.5" y="2.7" class="st0" width="6.2" height="0.6"/>
	<path id="Caminho_30" class="st1" d="M27.6,31l-5.1-2.5c-0.5,0.9-1.2,1.8-2.1,2.4c-0.2,0.2-0.4,0.3-0.7,0.5
		c-0.1,0.1-0.3,0.2-0.4,0.3c-1.7,0.8-3.5,1.3-5.3,1.3c-4.4,0-7.2-2.3-7.6-5.4h19.8c1-10.5-4.3-15.7-12.8-15.7
		C5.3,11.9,0,17.4,0,25.1c0,8.1,5.2,13.5,14,13.6c2.8,0,5.5-0.7,7.9-2c0,0,0.9-0.5,1.2-0.7c0.6-0.4,1.2-0.9,1.7-1.4
		c0,0,0.1,0,0.1-0.1l0,0C26,33.6,26.9,32.4,27.6,31 M13.7,17.4c3.6,0,6.2,1.6,6.6,4.9H6.6C7.5,19.1,10.3,17.4,13.7,17.4"/>
	<path id="Caminho_31" class="st0" d="M39.7,28.2c-1.3,2.2-3.7,3.4-6.3,3.4c-2.5,0-4.8-1.3-6.1-3.4h-5.5c1.6,5.7,6.4,9.1,12.5,9.1
		c3.3,0.2,6.4-1.4,8.2-4.1v-5L39.7,28.2z"/>
	<rect id="Retângulo_30" x="42.5" y="3.6" class="st0" width="6.3" height="0.3"/>
</g>
</svg>
