<?xml version="1.0" encoding="utf-8"?>
<!-- Generator: Adobe Illustrator 24.1.2, SVG Export Plug-In . SVG Version: 6.00 Build 0)  -->
<svg version="1.1" id="LOGO_IC" xmlns="http://www.w3.org/2000/svg" xmlns:xlink="http://www.w3.org/1999/xlink" x="0px" y="0px"
	 viewBox="0 0 2000 2000" style="enable-background:new 0 0 2000 2000;" xml:space="preserve">
<style type="text/css">
	.st0{fill:#31508B;}
	.st1{fill:#FFFFFF;}
	.st2{fill:url(#SVGID_1_);}
	.st3{fill:url(#SVGID_2_);}
	.st4{fill:#DE2114;}
	.st5{fill:url(#circulo_da_letra_i_1_);}
</style>
<g>
	<path class="st0" d="M1315.5,310c-151.4,0-322.8,33.3-495.3,104.4c-455,187.5-719,550-637,805.9c39.4,123.2,147,185.9,303.9,197.7
		h0.1c1.1,0,1.3-1.8,0.1-2c-128.2-20.9-216.8-80.9-237.1-160.6c-46.6-183.2,81.3-438.5,367-630.3v1118.2h406v-1219H795.3
		c4.2-2,8.5-4,12.8-6c194.1-89.6,379.7-130.9,538.9-130.9c184,0,332.8,55.2,419.1,154.9c68.8,79.5,56.4,193.1,23.8,275.4
		c-0.3,0.8,0.4,1.4,1,1.4c0.3,0,0.6-0.1,0.8-0.5c44.3-75.8,52.3-175.4,22.1-260.6C1757.5,399.3,1563.4,310,1315.5,310z"/>
	<path id="contorno_3_" class="st1" d="M1828.9,552.9c-14.6-41.2-38.3-78.7-70.4-111.6c-30.9-31.7-69.6-58.9-115-81
		c-88.7-43.4-202.1-66.3-328-66.3c-160.5,0-333.9,36.5-501.4,105.6c-218.9,90.2-405.9,226-526.4,382.3
		c-28.6,37.1-53.2,75.1-73.1,112.9c-20,38.1-35.4,76.3-45.9,113.6c-10.6,38-16.1,75.4-16.4,111.3c-0.3,36.8,5,72.3,15.6,105.4
		c20.4,63.9,59,114.1,114.6,149.3c52.6,33.3,121,53.3,203.4,59.5c0.4,0,0.8,0,1.2,0c8.9,0,16.2-6.7,16.9-15.6s-5.4-16.7-14.2-18.1
		c-60.6-9.9-113.4-29.1-152.6-55.7c-37.8-25.6-62.6-57.8-71.6-93.1c-22.3-87.6-1.9-194.2,57.3-300.2
		c60-107.4,155.9-209.2,278.2-295.7v1087.9v8c0,4.4,3.6,8,8,8h8h406h8c4.4,0,8-3.6,8-8v-8v-1219v-8c0-4.4-3.6-8-8-8h-8H870.7
		c164.8-68.8,328.4-104.9,476.3-104.9c179.1,0,323.7,53,407,149.4c78.6,90.9,36,221.3,21,259.1c-2.1,5.2-1.4,11.2,1.7,15.8
		c3.2,4.7,8.5,7.5,14.1,7.5c6,0,11.6-3.2,14.7-8.4c22.9-39.2,37.1-85.3,41.1-133.5C1850.6,645.5,1844.5,596.9,1828.9,552.9z
		 M1790.9,819.1c-0.6,0-1.3-0.6-1-1.4c32.6-82.3,45-195.9-23.8-275.4c-86.3-99.7-235.1-154.9-419.1-154.9
		c-159.2,0-344.8,41.3-538.9,130.9c-4.3,2-8.6,4-12.8,6h227.9v1219h-406V625.1c-285.7,191.8-413.6,447.1-367,630.3
		c20.3,79.7,108.9,139.7,237.1,160.6c1.2,0.2,1,2-0.1,2h-0.1c-156.9-11.8-264.5-74.5-303.9-197.7c-82-255.9,182-618.4,637-805.9
		C992.7,343.3,1164.1,310,1315.5,310c247.9,0,442,89.3,498.3,248c30.2,85.2,22.2,184.8-22.1,260.6
		C1791.5,819,1791.2,819.1,1790.9,819.1z"/>
</g>
<g>
	
		<radialGradient id="SVGID_1_" cx="493.3334" cy="-393.4209" r="1314.5756" gradientTransform="matrix(1 0 0 1 0 1007.874)" gradientUnits="userSpaceOnUse">
		<stop  offset="0" style="stop-color:#FFFFFF"/>
		<stop  offset="0.1094" style="stop-color:#F9FAFC"/>
		<stop  offset="0.2511" style="stop-color:#E9ECF3"/>
		<stop  offset="0.4107" style="stop-color:#CED6E4"/>
		<stop  offset="0.5833" style="stop-color:#A9B6CF"/>
		<stop  offset="0.7665" style="stop-color:#798DB4"/>
		<stop  offset="0.9557" style="stop-color:#405C93"/>
		<stop  offset="1" style="stop-color:#31508B"/>
	</radialGradient>
	<path class="st2" d="M708.2,1134c0,352.6,285.9,638.5,638.5,638.5c31.4,0,62.3-2.3,92.5-6.7V502.1c-30.2-4.4-61.1-6.7-92.5-6.7
		C994.1,495.4,708.2,781.4,708.2,1134z"/>
	<path id="contorno_2_" class="st1" d="M1448.4,487.3l-6.9-1c-31.2-4.6-63.1-6.9-94.8-6.9c-88.3,0-174.1,17.3-254.8,51.4
		c-38.8,16.4-76.2,36.7-111.2,60.3c-34.7,23.4-67.2,50.3-96.9,79.9c-29.6,29.6-56.5,62.2-79.9,96.9c-23.6,35-43.9,72.4-60.3,111.2
		c-34.1,80.7-51.4,166.4-51.4,254.8c0,88.3,17.3,174.1,51.4,254.8c16.4,38.8,36.7,76.2,60.3,111.2c23.4,34.7,50.3,67.2,79.9,96.9
		c29.6,29.6,62.2,56.5,96.9,79.9c35,23.6,72.4,43.9,111.2,60.3c80.7,34.1,166.4,51.4,254.8,51.4c31.7,0,63.6-2.3,94.8-6.8l6.9-1
		c3.9-0.6,6.8-3.9,6.8-7.9v-6.9V502.1v-6.9C1455.2,491.2,1452.3,487.9,1448.4,487.3z M1439.2,1765.8c-30.2,4.4-61.1,6.7-92.5,6.7
		c-352.6,0-638.5-285.9-638.5-638.5s285.9-638.6,638.5-638.6c31.4,0,62.3,2.3,92.5,6.7V1765.8z"/>
</g>
<g>
	
		<radialGradient id="SVGID_2_" cx="1666.519" cy="-449.7711" r="407.6871" fx="1663.6704" fy="-476.3531" gradientTransform="matrix(0.7071 -0.7071 0.6742 0.6742 246.3414 2387.8052)" gradientUnits="userSpaceOnUse">
		<stop  offset="0" style="stop-color:#FFFFFF"/>
		<stop  offset="0.2775" style="stop-color:#B6C1D6"/>
		<stop  offset="0.5249" style="stop-color:#7D91B6"/>
		<stop  offset="0.7354" style="stop-color:#546D9F"/>
		<stop  offset="0.9005" style="stop-color:#3A5890"/>
		<stop  offset="1" style="stop-color:#31508B"/>
	</radialGradient>
	<path class="st3" d="M1057.2,924.4c-115.9,160.1-80,383.9,80.1,499.8c63.5,45.9,136.9,68,209.6,68c110.9,0,220.3-51.4,290.3-148.1
		c115.9-160.1,80-383.9-80.1-499.8c-63.5-45.9-136.9-68-209.6-68C1236.6,776.3,1127.3,827.7,1057.2,924.4z"/>
	<path id="contorno_1_" class="st1" d="M1716.4,1075.1c-7.7-47.9-24.3-93.2-49.3-134.6c-25.9-42.8-59.8-79.6-100.7-109.2
		c-32.4-23.5-68-41.5-105.8-53.5c-36.5-11.6-74.6-17.5-113.1-17.5c-57.9,0-115.9,13.6-167.6,39.5c-26.4,13.2-51.2,29.5-73.7,48.5
		c-23.2,19.5-44,42-61.9,66.8c-29.6,40.9-50.3,86.4-61.5,135.2c-10.9,47.1-12.5,95.3-4.8,143.3c7.7,47.9,24.3,93.2,49.3,134.6
		c25.9,42.8,59.8,79.6,100.7,109.2c32.4,23.5,68,41.5,105.8,53.5c36.6,11.6,74.6,17.5,113.1,17.5c57.9,0,115.9-13.6,167.6-39.5
		c26.4-13.2,51.2-29.5,73.7-48.5c23.2-19.5,44-42,61.9-66.8c29.6-40.9,50.3-86.4,61.5-135.2
		C1722.5,1171.3,1724.1,1123.1,1716.4,1075.1z M1137.3,1424.2c-160.1-115.9-196-339.7-80.1-499.8c70.1-96.7,179.4-148.1,290.3-148.1
		c72.7,0,146.1,22.1,209.6,68c160.1,115.9,196,339.7,80.1,499.8c-70,96.7-179.4,148.1-290.3,148.1
		C1274.2,1492.2,1200.8,1470.1,1137.3,1424.2z"/>
</g>
<g>
	<path class="st4" d="M937.3,265.7c-35.5-25.7-76.6-38.1-117.3-38.1c-62.1,0-123.3,28.7-162.5,82.9
		c-64.9,89.6-44.9,214.9,44.8,279.8c35.5,25.7,76.6,38.1,117.3,38.1c62.1,0,123.4-28.8,162.5-82.9
		C1047,455.9,1027,330.6,937.3,265.7z"/>
	<path id="contorno" class="st1" d="M1033.5,393.8c-4.4-27.7-14-53.9-28.5-77.9c-15-24.8-34.6-46-58.3-63.2
		c-37.2-26.9-81-41.1-126.7-41.1c-33.5,0-67.1,7.9-97,22.8c-30.9,15.4-58.1,38.5-78.5,66.7c-17.1,23.7-29.1,50-35.6,78.2
		c-6.3,27.3-7.2,55.2-2.8,82.9c4.4,27.7,14,53.9,28.5,77.9c15,24.8,34.6,46,58.3,63.2c37.2,26.9,81,41.1,126.7,41.1
		c33.5,0,67.1-7.9,97-22.8c30.9-15.4,58.1-38.5,78.5-66.7c17.1-23.7,29.1-50,35.6-78.2C1037,449.4,1037.9,421.5,1033.5,393.8z
		 M937.3,265.7c89.7,64.9,109.7,190.2,44.8,279.8c-39.1,54.1-100.4,82.9-162.5,82.9c-40.7,0-81.8-12.4-117.3-38.1
		c-89.7-64.9-109.7-190.2-44.8-279.8c39.2-54.2,100.4-82.9,162.5-82.9C860.7,227.6,901.8,240,937.3,265.7z"/>
</g>
<radialGradient id="circulo_da_letra_i_1_" cx="1289.6887" cy="-1004.2488" r="136.2897" fx="1288.7366" fy="-1013.1352" gradientTransform="matrix(0.7071 -0.7071 0.6742 0.6742 509.8254 1940.7231)" gradientUnits="userSpaceOnUse">
	<stop  offset="0" style="stop-color:#FFFFFF"/>
	<stop  offset="0.2775" style="stop-color:#B6C1D6"/>
	<stop  offset="0.5249" style="stop-color:#7D91B6"/>
	<stop  offset="0.7354" style="stop-color:#546D9F"/>
	<stop  offset="0.9005" style="stop-color:#3A5890"/>
	<stop  offset="1" style="stop-color:#31508B"/>
</radialGradient>
<circle id="circulo_da_letra_i" class="st5" cx="820.2" cy="428" r="122.3"/>
</svg>
