<svg width="280" height="418" viewBox="0 0 280 418" fill="none" xmlns="http://www.w3.org/2000/svg">
<g clip-path="url(#clip0_564_7522)">
<path d="M179.619 268.999C189.417 268.999 198.728 268.904 208.031 269.133C209.066 269.158 210.723 270.897 210.966 272.073C214.432 288.879 217.845 305.701 220.966 322.575C222.585 331.327 218.207 336.359 209.409 336.365C163.397 336.399 182.643 336.397 136.632 336.361C127.455 336.355 125.282 330.912 125.079 321.541C123.691 257.488 123.691 203.174 123.691 136.662C125.423 127.946 130.311 123.771 139.335 123.747C158.216 123.699 150.041 123.703 168.922 123.76C177.205 123.784 182.023 127.493 183.702 135.529C187.515 153.764 191.105 172.045 194.879 190.765H163.934C162.037 181.269 160.079 171.665 158.208 162.043C157.428 158.03 156.574 155.701 154.465 154.489C153.353 155.298 153.213 156.902 153.213 159.924C153.213 207.7 153.213 238.88 156.231 297.217C157.236 301.744 161.187 306.368 168.922 306.375C170.917 306.377 172.482 306.379 173.686 306.38C174.703 306.379 175.918 306.377 177.356 306.375C184.669 306.366 186.35 304.169 184.947 296.99C183.164 287.871 181.468 278.735 179.619 268.999Z" fill="black"/>
<path d="M280 417.267H0C2.258 409.46 3.50403 401.819 6.66959 395.081C10.3526 387.241 17.7565 383.568 26.4845 383.563C102.371 383.51 178.257 383.513 254.142 383.553C265.418 383.559 274.598 390.994 277.069 401.965C278.181 406.91 278.987 411.924 280 417.267Z" fill="black"/>
<path d="M140.244 77.6885C131.815 77.6885 123.369 77.9926 114.967 77.5153C112.228 77.3592 108.873 75.8275 107.047 73.8001C94.3416 59.6899 92.4141 38.6933 101.905 22.2516C111.409 5.78706 130.698 -2.91794 149.25 0.8844C167.784 4.6833 182.431 20.2621 184.502 38.9744C185.958 52.1265 182.692 64.1371 173.476 73.9229C171.605 75.9101 168.267 77.3707 165.521 77.521C157.118 77.9834 148.672 77.6897 140.244 77.6885Z" fill="black"/>
<path d="M140.682 347.222C171.654 347.222 202.624 347.217 233.595 347.226C242.578 347.229 248.366 352.211 248.345 359.863C248.325 367.59 242.593 372.558 233.571 372.561C171.445 372.572 109.32 372.573 47.1941 372.561C37.9717 372.558 32.6881 367.887 32.687 359.851C32.6858 351.828 37.9568 347.228 47.2182 347.226C78.3724 347.217 109.527 347.222 140.682 347.222Z" fill="black"/>
<path d="M140.206 114C126.114 114 112.022 114.025 97.9306 113.991C89.5847 113.97 83.8445 108.635 84.0028 101.162C84.16 93.7917 89.6788 88.6837 97.7585 88.6722C126.126 88.6309 154.493 88.632 182.859 88.671C191.312 88.6825 196.873 93.9156 196.777 101.547C196.683 108.968 191.23 113.963 183.03 113.989C168.755 114.032 154.482 114 140.206 114Z" fill="black"/>
<path d="M94.9497 132.01C95.779 127.216 99.9381 123.715 104.803 123.715H107.507C113.03 123.715 117.507 128.192 117.507 133.715V325.941C117.507 331.464 113.03 335.941 107.507 335.941H71.5509C65.3466 335.941 60.6397 330.35 61.6972 324.237L94.9497 132.01Z" fill="black"/>
</g>
<defs>
<clipPath id="clip0_564_7522">
<rect width="280" height="417.267" fill="white"/>
</clipPath>
</defs>
</svg>