<svg width="204" height="38" viewBox="0 0 204 38" fill="none" xmlns="http://www.w3.org/2000/svg">
<g clip-path="url(#clip0_656_9532)">
<path d="M50.0098 25.92H53.5598V11.49H50.0098V25.92Z" fill="black"/>
<path d="M75.52 25.92H72.6L65.3 17.55V25.92H61.73V11.49H64.69L71.99 20.1V11.49H75.52V25.92Z" fill="black"/>
<path d="M98.6499 20.51C98.3199 22.28 97.4899 23.69 96.1699 24.71C94.8599 25.73 93.2499 26.24 91.3599 26.24C89.2199 26.24 87.3999 25.52 85.9299 24.06C84.4499 22.62 83.6899 20.83 83.6899 18.7C83.6899 16.57 84.4299 14.8 85.9299 13.34C87.4099 11.88 89.2399 11.16 91.3599 11.16C93.1699 11.16 94.7399 11.66 96.0899 12.68C97.4399 13.68 98.2699 15.03 98.6199 16.71L95.1299 17.52C94.9099 16.5 94.4599 15.73 93.7999 15.21C93.1299 14.69 92.3199 14.42 91.3599 14.42C90.2099 14.42 89.2299 14.83 88.4399 15.64C87.6499 16.45 87.2399 17.49 87.2399 18.71C87.2399 19.93 87.6499 20.95 88.4399 21.78C89.2299 22.61 90.2099 23.02 91.3599 23.02C92.2999 23.02 93.1199 22.74 93.7799 22.21C94.4399 21.68 94.9099 20.88 95.1499 19.83L98.6399 20.53L98.6499 20.51Z" fill="black"/>
<path d="M117.47 21.76C118.26 20.95 118.65 19.93 118.65 18.71C118.65 17.49 118.26 16.46 117.47 15.62C116.68 14.81 115.7 14.4 114.51 14.4C113.32 14.4 112.35 14.81 111.55 15.62C110.75 16.43 110.37 17.47 110.37 18.71C110.37 19.95 110.76 20.95 111.55 21.76C112.34 22.57 113.32 22.98 114.51 22.98C115.7 22.98 116.67 22.57 117.47 21.76ZM119.97 13.35C121.45 14.81 122.21 16.6 122.21 18.71C122.21 20.82 121.47 22.59 119.97 24.03C118.49 25.49 116.66 26.21 114.52 26.21C112.38 26.21 110.55 25.49 109.07 24.03C107.59 22.57 106.83 20.8 106.83 18.71C106.83 16.62 107.57 14.81 109.07 13.35C110.55 11.89 112.38 11.15 114.52 11.15C116.66 11.15 118.49 11.89 119.97 13.35Z" fill="black"/>
<path d="M145.53 17.4C145.59 17.86 145.62 18.31 145.62 18.71C145.62 20.89 144.92 22.68 143.51 24.11C142.11 25.53 140.31 26.24 138.15 26.24C135.99 26.24 134.12 25.52 132.62 24.06C131.12 22.62 130.37 20.83 130.37 18.7C130.37 16.57 131.11 14.8 132.61 13.34C134.09 11.88 135.92 11.16 138.1 11.16C139.74 11.16 141.22 11.53 142.5 12.29C143.78 13.05 144.66 14.12 145.14 15.49L141.72 16.49C141.02 15.1 139.82 14.42 138.1 14.42C136.92 14.42 135.94 14.83 135.14 15.64C134.34 16.45 133.96 17.47 133.96 18.69C133.96 19.91 134.37 20.93 135.18 21.76C135.99 22.59 137.01 23 138.21 23C139.15 23 139.95 22.78 140.61 22.32C141.27 21.86 141.76 21.23 142.01 20.42H137.57V17.41H145.52V17.43L145.53 17.4Z" fill="black"/>
<path d="M167.58 25.92H164.64L157.34 17.55V25.92H153.79V11.49H156.75L164.05 20.1V11.49H167.58V25.92Z" fill="black"/>
<path d="M175.75 25.92H179.3V11.49H175.75V25.92Z" fill="black"/>
<path d="M195.35 15.5L193.52 20.23H197.2L195.35 15.5ZM199.4 25.92L198.38 23.3H192.3L191.28 25.92H187.47L193.5 11.49H197.14L203.17 25.92H199.4Z" fill="black"/>
<path d="M18.89 0C8.47 0 0 8.47 0 18.89C0 29.31 8.47 37.78 18.89 37.78C29.31 37.78 37.78 29.31 37.78 18.89C37.78 8.47 29.3 0 18.89 0ZM18.89 35.35C9.81 35.35 2.43 27.97 2.43 18.89C2.43 9.81 9.81 2.43 18.89 2.43C27.97 2.43 35.35 9.81 35.35 18.89C35.35 27.97 27.97 35.35 18.89 35.35Z" fill="black"/>
<path d="M18.8898 5.29999C11.3998 5.29999 5.2998 11.39 5.2998 18.89C5.2998 23.23 7.3398 27.09 10.5198 29.58C10.8898 28.84 11.3298 28.15 11.8298 27.53C9.3298 25.48 7.7298 22.37 7.7298 18.89C7.7298 12.74 12.7398 7.72999 18.8898 7.72999C25.0398 7.72999 30.0498 12.74 30.0498 18.89C30.0498 22.36 28.4598 25.46 25.9698 27.51C26.4698 28.13 26.9098 28.82 27.2798 29.56C30.4398 27.07 32.4698 23.22 32.4698 18.89C32.4698 11.4 26.3798 5.29999 18.8798 5.29999H18.8898Z" fill="black"/>
<path d="M18.8902 10.66C14.3502 10.66 10.6602 14.35 10.6602 18.89C10.6602 21.59 11.9602 23.98 13.9702 25.49C14.7702 24.92 15.6502 24.49 16.5802 24.22C14.5302 23.32 13.0902 21.28 13.0902 18.9C13.0902 15.7 15.6902 13.1 18.8902 13.1C22.0902 13.1 24.6902 15.7 24.6902 18.9C24.6902 21.27 23.2602 23.32 21.2102 24.21C22.1402 24.48 23.0102 24.91 23.8202 25.48C25.8202 23.98 27.1102 21.59 27.1102 18.9C27.1102 14.36 23.4202 10.67 18.8802 10.67L18.8902 10.66Z" fill="black"/>
</g>
<defs>
<clipPath id="clip0_656_9532">
<rect width="203.17" height="37.77" fill="white"/>
</clipPath>
</defs>
</svg>
