<?xml version="1.0" encoding="utf-8"?>
<!-- Generator: Adobe Illustrator 24.1.2, SVG Export Plug-In . SVG Version: 6.00 Build 0)  -->
<svg version="1.1" id="Camada_1" xmlns="http://www.w3.org/2000/svg" xmlns:xlink="http://www.w3.org/1999/xlink" x="0px" y="0px"
	 viewBox="0 0 1712.6 230.7" style="enable-background:new 0 0 1712.6 230.7;" xml:space="preserve">
<style type="text/css">
	.st0{fill:#303199;}
</style>
<g>
	<path class="st0" d="M4.5,120.6c2.5,0,4.6,2,4.6,4.6v3.7c0,27.8,22.2,50.8,49.6,51.2c0.3,0,0.6,0,0.9,0c27.8,0,50.4-22.6,50.4-50.4
		v-4.5c0-2.5,2-4.6,4.6-4.6c2.5,0,4.6,2,4.6,4.6v4.5c0,30.4-22.8,55.8-52.9,59.2l-2.1,0.2v2.1v27.9v2.3h2.3h17.2
		c2.5,0,4.6,2,4.6,4.6c0,2.5-2,4.6-4.6,4.6H35.5c-2.5,0-4.6-2-4.6-4.6c0-2.5,2-4.6,4.6-4.6h17.2H55v-2.3v-27.9v-2.1l-2.1-0.2
		C22.7,185.5,0,160.1,0,129.7v-4.5C-0.1,122.6,2,120.6,4.5,120.6z"/>
</g>
<path class="st0" d="M55.5,0.2L55.5,0.2L55.5,0.2c1-0.1,1.8-0.1,2.7-0.2c1.7,0,3.3,0,4.9,0.2l0,0h0.3c20.2,1.9,36,18.2,36,38V130
	c0,19.9-15.9,36.2-36.1,38l0,0l0,0c-0.2,0-0.3,0-0.5,0v-37v-0.8l0.8-0.2c10.5-2.7,16.7-6.9,17.2-20.6V82c2.8-1.3,4.7-4.1,4.7-7.4
	c0-4.6-3.7-8.3-8.3-8.3s-8.3,3.7-8.3,8.3c0,3.3,1.9,6.1,4.7,7.4v27.4c-0.2,7.2-1.6,10.6-9.3,13l-1.3,0.4v-1.4V64.3
	c2.8-1.3,4.7-4.1,4.7-7.4c0-4.6-3.7-8.3-8.3-8.3s-8.3,3.7-8.3,8.3c0,3.3,1.9,6.1,4.7,7.4v85.3v1.4l-1.3-0.4c-7.7-2.4-9-5.7-9.3-12.8
	v-27.5c2.8-1.3,4.7-4.1,4.7-7.4c0-4.6-3.7-8.3-8.3-8.3s-8.3,3.7-8.3,8.3c0,3.3,1.9,6.1,4.7,7.4v27.6c0.5,13.6,6.7,17.8,17.2,20.4
	l0.8,0.2v0.8v8.8c-0.1,0-0.2,0-0.3,0h-0.3c-20.4-2-36-18.9-36-38.8V39.1C19.5,19.1,35.2,2.1,55.5,0.2z"/>
<g>
	<polygon class="st0" points="292.9,3 282.2,3 282.2,227.8 394.3,227.8 394.3,216.7 292.9,216.7 	"/>
	<path class="st0" d="M589.5,3l-0.1-0.4L589.3,3H584l-77.6,224.8h11.9l21-60.7h100.1l21,60.7h11.9L595.2,2.9L589.5,3L589.5,3
		L589.5,3z M543.1,156l46.2-134.9L635.5,156H543.1z"/>
	<path class="st0" d="M880.2,11.2c23.6,0,47.4,8.3,65.4,22.9l2.5,2l6.8-9.3l-2.3-1.8C932.2,9.2,905.8,0.1,880.3,0.1
		C815.4,0,768.4,48.5,768.4,115.2c0,32.4,11.3,61.8,31.8,82.9c20.4,21,48.8,32.6,79.9,32.6c25.1,0,50-8.2,70.2-23l2.4-1.8l-6.8-9.3
		l-2.4,1.9c-17.5,13.4-40.6,21.1-63.4,21.1c-58,0-100.1-43.9-100.1-104.4C780.1,54.9,822.2,11.2,880.2,11.2z"/>
	<path class="st0" d="M1134.5,3l-0.1-0.4l-0.1,0.4h-5.3l-77.6,224.8h11.9l21-60.7h100.1l21,60.7h11.9L1140.2,2.9L1134.5,3L1134.5,3
		L1134.5,3z M1088.1,156l46.2-134.9l46.2,134.9H1088.1z"/>
	<path class="st0" d="M1398.8,107.8c-3.3-1.8-6.6-3.6-9.9-5.3c-29.6-15.8-55.1-29.4-55.1-56.1c0-20.5,20.7-34.9,50.3-34.9
		c22.6,0,40.8,5.3,55.6,16.3l2.5,1.9l6.3-9.4l-2.3-1.7c-17-12.3-37.3-18.2-62.1-18.2c-16.8,0-32.1,4.4-43.3,12.3
		c-11.8,8.4-18.2,20.4-18.2,33.8c0,33.7,32.2,50.7,63.2,67.2c2.9,1.5,5.8,3,8.6,4.6c26.6,14.6,47,27.8,47,52.5
		c0,31.8-30.9,48.5-61.4,48.5c-19.9,0-42.5-8.4-53.8-20.1l-2.6-2.7l-6.3,9.5l1.6,1.7c11.6,12.7,38.4,22.7,61.1,22.7
		c19.4,0,37.3-5.5,50.5-15.6c14.4-11,22-26.2,22-44.1C1452.6,139.5,1427.1,123.1,1398.8,107.8z"/>
	<polygon class="st0" points="1556.5,3 1556.5,14.1 1629,14.1 1629,227.8 1640.1,227.8 1640.1,14.1 1712.6,14.1 1712.6,3 	"/>
</g>
</svg>
