<?xml version="1.0" encoding="utf-8"?>
<!-- Generator: Adobe Illustrator 24.1.2, SVG Export Plug-In . SVG Version: 6.00 Build 0)  -->
<svg version="1.1" id="Camada_1" xmlns="http://www.w3.org/2000/svg" xmlns:xlink="http://www.w3.org/1999/xlink" x="0px" y="0px"
	 viewBox="0 0 2173.5 1417.3" style="enable-background:new 0 0 2173.5 1417.3;" xml:space="preserve">
<style type="text/css">
	.st0{fill:#7F007F;}
	.st1{fill:#9F409F;}
	.st2{fill:#BF7FBF;}
</style>
<g id="logo_LaCCAN">
	<g id="Laboratório_de_Computação_Cientifica_e_Análise_Numérica">
		<path class="st0" d="M54.7,1276.2c9.2-0.5,9.9-0.8,9.9-7.2v-60.2c0-6.4-0.7-6.7-9.9-7.2v-4.2h37.1v4.2c-9.9,0.5-10.7,0.8-10.7,7.2
			v57c0,5.3,1,7.8,3.5,8.6c2.6,0.7,6.1,0.8,10.5,0.8c13.4,0,16.8-4.8,20.4-18.1h4.3l-1.4,23.1H54.7V1276.2z"/>
		<path class="st0" d="M185.8,1278.2c-4.2,1.8-10.9,3.6-16.4,3.6c-5.3,0-7.2-3.1-8.9-7.1c-4.1,2.8-9.8,7.1-17.1,7.1
			c-11.7,0-18-8.2-18-17.3c0-6.7,3-11.7,12.6-14.9c7.9-2.5,16.7-5,22.3-8.3v-6.2c0-7.8-4.2-9.9-8-9.9c-4,0-8.1,2.2-11.3,11.9
			c-0.8,2.6-2.2,4.3-4.7,4.3c-2.6,0-9.1-2-9.1-6.8c0-7.4,10.7-14.4,26.7-14.4c20,0,21.6,9.6,21.6,17v27.6c0,7.3,2.2,9,4,9.5
			s4.2,0.6,5.9,0.4L185.8,1278.2z M160.3,1246.8c-2.8,1.4-7.3,3-11.7,5.2c-4.8,2.3-6.9,4.9-6.9,10.7c0,6.7,4,10.9,9.6,10.9
			c3.7,0,9-2,9.1-9.6v-17.2H160.3z"/>
		<path class="st0" d="M209.7,1228.6c5.3-3.7,11.5-8.4,19.7-8.4c15.5,0,22.6,13.2,22.6,29c0,26.1-14.1,32.6-30.8,32.6
			c-8.3,0-13.7-1.9-18-4.3l-5.9,4.3l-3.4-1.7V1205c0-4.7-0.8-5.5-3.2-5.9l-4.3-0.7v-3.8l22.4-3.1l0.8,0.7L209.7,1228.6L209.7,1228.6
			z M209.7,1261.6c0,2.5,0.1,5,0.8,7.6c1.4,4.3,4.8,7.7,10.9,7.7c9.9,0,13.8-9.6,13.8-25.4c0-19.8-7.6-22.9-13.2-22.9
			c-5.8,0-9.6,3.1-11.3,7.3c-0.8,1.8-1.1,4.1-1.1,6.8v18.9H209.7z"/>
		<path class="st0" d="M261.4,1251c0-19.3,9.2-30.8,30.1-30.8c21,0,30.2,11.5,30.2,30.8s-9.2,30.8-30.2,30.8
			C270.6,1281.8,261.4,1270.3,261.4,1251z M304.9,1251c0-16.2-4.1-25.8-13.4-25.8c-9.2,0-13.3,9.6-13.3,25.8s4.1,25.8,13.3,25.8
			C300.8,1276.8,304.9,1267.2,304.9,1251z"/>
		<path class="st0" d="M329.7,1276.2c7.3-0.4,8.1-0.8,8.1-6.2v-36.2c0-4.6-0.8-5.5-3.2-5.8l-4.3-0.6v-3.8l21.6-3.4l1.4,10.2
			c7.3-7.2,11.1-10.2,15.8-10.2c5,0,7.4,3.2,7.4,7.3c0,2.2-0.5,4.4-1.7,6.1c-1.3,1.6-3.1,2.6-5.2,2.6c-1.7,0-3.1-0.7-4.4-1.4
			c-2.9-1.7-4.8-2.6-6.7-2.6c-2.9,0-5,2.9-5,10.2v27.6c0,5.4,1,5.8,10.7,6.2v4.2h-34.5L329.7,1276.2L329.7,1276.2z"/>
		<path class="st0" d="M441.9,1278.2c-4.2,1.8-10.9,3.6-16.4,3.6c-5.3,0-7.2-3.1-8.9-7.1c-4.1,2.8-9.8,7.1-17.1,7.1
			c-11.7,0-18-8.2-18-17.3c0-6.7,3-11.7,12.6-14.9c7.9-2.5,16.7-5,22.3-8.3v-6.2c0-7.8-4.2-9.9-8-9.9c-4,0-8.1,2.2-11.3,11.9
			c-0.8,2.6-2.2,4.3-4.7,4.3c-2.6,0-9.1-2-9.1-6.8c0-7.4,10.7-14.4,26.7-14.4c20,0,21.6,9.6,21.6,17v27.6c0,7.3,2.2,9,4,9.5
			s4.2,0.6,5.9,0.4L441.9,1278.2z M416.3,1246.8c-2.8,1.4-7.3,3-11.7,5.2c-4.8,2.3-6.9,4.9-6.9,10.7c0,6.7,4,10.9,9.6,10.9
			c3.7,0,9-2,9.1-9.6v-17.2H416.3z"/>
		<path class="st0" d="M481.3,1227.2h-13.4v35.2c0,8.1,3.4,11.4,7.7,11.4c2.8,0,5.3-0.5,7.4-1.3l1.2,3.2c-5.5,3.5-12.3,6.1-17.7,6.1
			c-5.8,0-14.3-3.5-14.3-14.9v-39.8h-7.5v-5.5h8l9.5-15.1h5.8v15.1h13.4v5.6H481.3z"/>
		<path class="st0" d="M488.6,1251c0-19.3,9.2-30.8,30.1-30.8c21,0,30.2,11.5,30.2,30.8s-9.2,30.8-30.2,30.8
			C497.9,1281.8,488.6,1270.3,488.6,1251z M532.1,1251c0-16.2-4.1-25.8-13.4-25.8c-9.2,0-13.3,9.6-13.3,25.8s4.1,25.8,13.3,25.8
			C528,1276.8,532.1,1267.2,532.1,1251z M512.6,1214.6l16.2-16.5c4.2-4.3,6.2-5.6,8.5-5.6c2.4,0,5.8,3.7,5.8,6.5
			c0,2.9-3.6,5.2-7.7,7.4l-20.6,11.5L512.6,1214.6z"/>
		<path class="st0" d="M556.9,1276.2c7.3-0.4,8.1-0.8,8.1-6.2v-36.2c0-4.6-0.8-5.5-3.2-5.8l-4.3-0.6v-3.8l21.6-3.4l1.4,10.2
			c7.3-7.2,11.1-10.2,15.8-10.2c5,0,7.4,3.2,7.4,7.3c0,2.2-0.5,4.4-1.7,6.1c-1.3,1.6-3.1,2.6-5.2,2.6c-1.7,0-3.1-0.7-4.4-1.4
			c-2.9-1.7-4.8-2.6-6.7-2.6c-2.9,0-5,2.9-5,10.2v27.6c0,5.4,1,5.8,10.7,6.2v4.2h-34.5L556.9,1276.2L556.9,1276.2z"/>
		<path class="st0" d="M632.2,1270c0,5.4,0.8,5.9,8.3,6.2v4.2h-32.2v-4.2c7.4-0.4,8.3-0.8,8.3-6.2v-36.2c0-4.6-0.8-5.4-3.1-5.8
			l-4.3-0.6v-3.8l22.3-3.4l0.8,0.7L632.2,1270L632.2,1270z M614.4,1203.7c0-5.2,3.7-9.3,9.6-9.3c6,0,9.7,4.2,9.7,9.3
			c-0.1,5.2-4,9.3-9.7,9.3C618.1,1213,614.4,1208.8,614.4,1203.7z"/>
		<path class="st0" d="M646.5,1251c0-19.3,9.2-30.8,30.1-30.8c21,0,30.2,11.5,30.2,30.8s-9.2,30.8-30.2,30.8
			C655.7,1281.8,646.5,1270.3,646.5,1251z M690,1251c0-16.2-4.1-25.8-13.4-25.8c-9.2,0-13.3,9.6-13.3,25.8s4.1,25.8,13.3,25.8
			C685.9,1276.8,690,1267.2,690,1251z"/>
		<path class="st0" d="M784.2,1274.2c-6.5,5.2-12.7,7.7-17.9,7.7c-15.5,0-24.4-12.1-24.4-29.7c0-10.8,3.4-18.6,8.9-24
			c5.2-5,12.9-7.9,22.8-7.9c4.1,0,7.8,0.6,10.7,1.7v-17c0-4.7-0.8-5.5-3.2-5.9l-4.3-0.7v-3.8l22.4-3.1l0.8,0.7v77.8
			c0,5.4,0.8,5.9,8.3,6.2v4.2h-23.6l-0.4-0.6L784.2,1274.2L784.2,1274.2z M784.2,1238c0-2.8,0-5-1-6.9c-1.7-3.2-4.8-5.8-9.7-5.8
			c-8.6,0-14.9,8-14.9,24.8c0,14.9,5.3,23.5,14.3,23.5c5.6,0,9.1-2.5,10.5-6.7c0.6-1.8,0.7-3.6,0.7-5.4V1238H784.2z"/>
		<path class="st0" d="M868.1,1264.6c-3.8,10.2-11.3,17.3-25.2,17.3c-21,0.1-28.9-13.3-28.9-30.7c0-8.4,2.2-16.2,6.9-21.8
			c4.8-5.6,12-9.1,21.8-9.1c24.4,0,26.1,17.9,26.1,24.6c0,4-2.2,4.9-5.9,4.9h-32.2c0,12.6,3.6,24.1,16.7,24.1
			c8.1,0,13.1-4.6,16.5-11.5L868.1,1264.6z M848.4,1244.4c3,0,3.8-0.8,3.8-4c0-5.3-1.2-15.2-9.8-15.2c-9.5,0-11.5,11.9-11.5,19.2
			H848.4z"/>
		<path class="st0" d="M973.7,1276.4c-6.7,3.8-18.7,5.8-27.4,5.8c-14.1,0-25-3.4-32.4-10.2c-7.7-7.3-11.6-18.3-11.6-32
			c0-13.4,3.5-24.3,10.7-32.2c7.2-7.7,18.7-12.1,34.6-12.1c7.8,0,19.2,1.4,25.6,5v20.5H969c-2.5-10.7-8.3-20.5-22.5-20.5
			c-21.9,0-25.8,24.9-25.8,37.6c0,13.9,3.7,38.8,26.4,38.8c14.3,0,19.8-9.9,23.8-22.9h4.2L973.7,1276.4z"/>
		<path class="st0" d="M982.4,1251c0-19.3,9.2-30.8,30.1-30.8c21,0,30.2,11.5,30.2,30.8s-9.2,30.8-30.2,30.8
			C991.7,1281.8,982.4,1270.3,982.4,1251z M1026,1251c0-16.2-4.1-25.8-13.4-25.8c-9.2,0-13.3,9.6-13.3,25.8s4.1,25.8,13.3,25.8
			C1021.9,1276.8,1026,1267.2,1026,1251z"/>
		<path class="st0" d="M1119.9,1280.4h-30.3v-4.2l3-0.2c3.4-0.2,4.3-1.1,4.3-5.5v-29.2c0-7.1-2.3-12.7-9.7-12.7
			c-5.5,0-10.2,3.2-11.9,8.6c-0.6,1.7-0.7,3.6-0.7,5.9v27.4c0,4.4,1,5.3,4.3,5.5l3,0.2v4.2h-31.2v-4.2c7.4-0.4,8.2-0.8,8.2-6.2
			v-36.2c0-4.6-0.8-5.4-3.1-5.8l-4.4-0.6v-3.8l21.6-3.4l1.7,8.6c5.8-3.6,12-8.6,20.3-8.6c8.9,0,13.5,4.3,16.3,9.1
			c4.8-3.2,12.1-9.1,21-9.1c12.3,0,18.5,7.1,18.5,18.7v31c0,5.4,0.8,5.9,8.3,6.2v4.2h-31.3v-4.2l3.1-0.2c3.2-0.2,4.2-1.1,4.2-5.5
			v-29.2c0-8.6-4.1-12.7-10.4-12.7c-5.2,0-9.6,3-11.3,8.5c-0.5,1.6-0.6,3.7-0.6,6v27.4c0,4.3,1,5.3,4.3,5.5l3,0.2v4.3H1119.9z"/>
		<path class="st0" d="M1162.4,1303.8c7.3-0.4,8.1-0.8,8.1-6.2v-63.8c0-4.6-0.8-5.5-3.2-5.8l-4.3-0.6v-3.8l21.3-3.4l1.9,8.5
			c5.4-4,11.5-8.5,20-8.5c15,0,22.3,13.3,22.3,29.2c0,12.8-3.6,21.2-9.3,26c-5.8,4.8-13.4,6.4-21.5,6.4c-4.2,0-9.1-1-11.5-2v17.7
			c0,5.4,1,5.9,10.2,6.2v4.2h-34V1303.8z M1186.2,1261.9c0,2.5,0.1,5.3,0.6,7.2c1.3,4.8,5.2,7.7,10.8,7.7c9.9,0,14.1-9.5,14.1-25.4
			c0-19.5-7.8-22.9-13.2-22.9c-5.5,0-9.2,2.8-11.3,7.6c-0.7,1.9-1.1,4.1-1.1,6.7L1186.2,1261.9L1186.2,1261.9z"/>
		<path class="st0" d="M1282.3,1273.6c-4.3,2.3-11.3,8.3-21.5,8.3c-8.7,0-17.3-4.1-17.3-18v-30.1c0-4.6-0.8-5.4-3.2-5.8l-4.3-0.6
			v-3.8l22.4-3.4l0.8,0.7v39.2c0,9.3,4.4,13.4,10.7,13.4c5.5,0,9.7-3.2,11.4-7c0.7-1.6,1-4.4,1-7v-25.9c0-4.6-0.8-5.4-3.2-5.8
			l-4.3-0.6v-3.8l22.4-3.4l0.8,0.7v49c0,5.4,0.8,5.9,8.1,6.2v4.2h-22.8L1282.3,1273.6z"/>
		<path class="st0" d="M1347.8,1227.2h-13.4v35.2c0,8.1,3.4,11.4,7.7,11.4c2.8,0,5.3-0.5,7.4-1.3l1.2,3.2
			c-5.5,3.5-12.3,6.1-17.7,6.1c-5.8,0-14.3-3.5-14.3-14.9v-39.8h-7.5v-5.5h8l9.5-15.1h5.8v15.1h13.4L1347.8,1227.2L1347.8,1227.2z"
			/>
		<path class="st0" d="M1416.1,1278.2c-4.2,1.8-10.9,3.6-16.4,3.6c-5.3,0-7.2-3.1-8.9-7.1c-4.1,2.8-9.8,7.1-17.1,7.1
			c-11.7,0-18-8.2-18-17.3c0-6.7,3-11.7,12.6-14.9c7.9-2.5,16.7-5,22.3-8.3v-6.2c0-7.8-4.2-9.9-8-9.9c-4,0-8.2,2.2-11.3,11.9
			c-0.8,2.6-2.2,4.3-4.7,4.3c-2.6,0-9.1-2-9.1-6.8c0-7.4,10.7-14.4,26.7-14.4c20,0,21.6,9.6,21.6,17v27.6c0,7.3,2.2,9,4,9.5
			s4.2,0.6,5.9,0.4L1416.1,1278.2z M1390.6,1246.8c-2.8,1.4-7.3,3-11.7,5.2c-4.8,2.3-7,4.9-7,10.7c0,6.7,4,10.9,9.6,10.9
			c3.7,0,9-2,9.1-9.6V1246.8z"/>
		<path class="st0" d="M1444.6,1281.6c-15.2-1.2-24.6-11.1-24.6-30.1c0-9.5,2.6-17.3,7.7-22.8c4.9-5.4,12.3-8.5,22.2-8.5
			c11.7,0,22.3,5,22.3,12.6c0,5-5.5,7-9.1,7c-2.9,0-4.2-1.3-4.9-3.7c-2.2-7-4.7-10.8-9.3-10.8c-6.4,0-12,6.7-12,23.7
			c0,15.9,6,24.8,16.1,24.8c7.4,0,12.1-3.5,16.1-11.6l4,1.8c-3.8,12.8-13.3,17.1-22.3,17.7l-3.5,5.5c4,0.5,11.5,2.6,11.5,10.7
			c0,10.3-12,11.6-16.9,11.6c-2.2,0-3.6-0.1-5.5-0.4v-3.5c6.4,0,10.9-1.8,10.9-6.9c0-5.6-5.3-6.6-7.7-6.7l-0.5-1L1444.6,1281.6z"/>
		<path class="st0" d="M1540.4,1278.2c-4.2,1.8-10.9,3.6-16.4,3.6c-5.3,0-7.2-3.1-8.9-7.1c-4.1,2.8-9.8,7.1-17.1,7.1
			c-11.7,0-18-8.2-18-17.3c0-6.7,3-11.7,12.6-14.9c7.9-2.5,16.7-5,22.3-8.3v-6.2c0-7.8-4.2-9.9-8-9.9c-4,0-8.2,2.2-11.3,11.9
			c-0.8,2.6-2.2,4.3-4.7,4.3c-2.6,0-9.1-2-9.1-6.8c0-7.4,10.7-14.4,26.7-14.4c20,0,21.6,9.6,21.6,17v27.6c0,7.3,2.2,9,4,9.5
			s4.2,0.6,5.9,0.4L1540.4,1278.2z M1483.7,1211.7c2.3-5,6.1-13.5,15.2-13.5c3.1,0,6.8,1.2,10.6,2.4c3.6,1.2,7.3,2.4,10.2,2.4
			c4.1,0,5.8-1.7,8.6-6.1l3.4,1.8c-2.6,5.8-6.5,13.4-14.9,13.4c-2.9,0-6.5-1.2-10.2-2.4c-3.6-1.2-7.4-2.4-10.7-2.4
			c-4.3,0-6.2,1.9-8.9,6.4L1483.7,1211.7z M1514.9,1246.8c-2.8,1.4-7.3,3-11.7,5.2c-4.8,2.3-7,4.9-7,10.7c0,6.7,4,10.9,9.6,10.9
			c3.7,0,9-2,9.1-9.6V1246.8z"/>
		<path class="st0" d="M1544.4,1251c0-19.3,9.2-30.8,30.1-30.8c21,0,30.2,11.5,30.2,30.8s-9.2,30.8-30.2,30.8
			C1553.6,1281.8,1544.4,1270.3,1544.4,1251z M1587.9,1251c0-16.2-4.1-25.8-13.4-25.8c-9.2,0-13.3,9.6-13.3,25.8s4.1,25.8,13.3,25.8
			C1583.8,1276.8,1587.9,1267.2,1587.9,1251z"/>
		<path class="st0" d="M1711.8,1276.4c-6.7,3.8-18.7,5.8-27.4,5.8c-14.1,0-25-3.4-32.4-10.2c-7.7-7.3-11.6-18.3-11.6-32
			c0-13.4,3.5-24.3,10.7-32.2c7.2-7.7,18.7-12.1,34.6-12.1c7.8,0,19.2,1.4,25.6,5v20.5h-4.2c-2.5-10.7-8.3-20.5-22.5-20.5
			c-21.9,0-25.8,24.9-25.8,37.6c0,13.9,3.7,38.8,26.4,38.8c14.3,0,19.8-9.9,23.8-22.9h4.2L1711.8,1276.4z"/>
		<path class="st0" d="M1744.5,1270c0,5.4,0.8,5.9,8.3,6.2v4.2h-32.2v-4.2c7.4-0.4,8.3-0.8,8.3-6.2v-36.2c0-4.6-0.8-5.4-3.1-5.8
			l-4.3-0.6v-3.8l22.3-3.4l0.8,0.7L1744.5,1270L1744.5,1270z M1726.7,1203.7c0-5.2,3.7-9.3,9.6-9.3c6,0,9.7,4.2,9.7,9.3
			c-0.1,5.2-4,9.3-9.7,9.3C1730.4,1213,1726.7,1208.8,1726.7,1203.7z"/>
		<path class="st0" d="M1812.8,1264.6c-3.8,10.2-11.3,17.3-25.2,17.3c-21,0.1-28.9-13.3-28.9-30.7c0-8.4,2.2-16.2,7-21.8
			c4.8-5.6,12-9.1,21.8-9.1c24.4,0,26.1,17.9,26.1,24.6c0,4-2.2,4.9-5.9,4.9h-32.2c0,12.6,3.6,24.1,16.7,24.1
			c8.1,0,13.1-4.6,16.5-11.5L1812.8,1264.6z M1793.2,1244.4c3,0,3.8-0.8,3.8-4c0-5.3-1.2-15.2-9.8-15.2c-9.5,0-11.5,11.9-11.5,19.2
			H1793.2z"/>
		<path class="st0" d="M1819.3,1276.2c7.4-0.4,8.1-0.8,8.1-6.2v-36.2c0-4.6-0.8-5.4-3.1-5.8l-4.4-0.6v-3.8l21.6-3.4l1.7,8.6
			c7.7-4.8,13.3-8.6,20.9-8.6c12,0,18,7.1,18,18.7v31c0,5.4,0.8,5.9,8.3,6.2v4.2H1859v-4.2l3.1-0.2c3.2-0.2,4.2-1.1,4.2-5.5v-29.6
			c0-8.4-3.8-12.3-10.5-12.3c-5.5,0-9.5,3.1-11.4,6.8c-1,1.8-1.2,4.1-1.2,7v28.2c0,4.4,1,5.3,4.3,5.5l3,0.2v4.2h-31.2V1276.2z"/>
		<path class="st0" d="M1931.7,1227.2h-13.4v35.2c0,8.1,3.4,11.4,7.7,11.4c2.8,0,5.3-0.5,7.4-1.3l1.2,3.2
			c-5.5,3.5-12.3,6.1-17.7,6.1c-5.8,0-14.3-3.5-14.3-14.9v-39.8h-7.5v-5.5h8l9.5-15.1h5.8v15.1h13.4L1931.7,1227.2L1931.7,1227.2z"
			/>
		<path class="st0" d="M1961.6,1270c0,5.4,0.8,5.9,8.3,6.2v4.2h-32.2v-4.2c7.4-0.4,8.3-0.8,8.3-6.2v-36.2c0-4.6-0.8-5.4-3.1-5.8
			l-4.3-0.6v-3.8l22.3-3.4l0.8,0.7L1961.6,1270L1961.6,1270z M1946,1214.6l16.2-16.5c4.2-4.3,6.2-5.6,8.5-5.6c2.4,0,5.8,3.7,5.8,6.5
			c0,2.9-3.6,5.2-7.7,7.4l-20.6,11.5L1946,1214.6z"/>
		<path class="st0" d="M1974.5,1276.2c7.4-0.4,8.2-0.8,8.2-6.2v-42.8h-8.2v-5.5h8.2v-3.6c0-9.2,1.7-15.3,5-19.5
			c3.6-4.4,9-7.1,15.8-7.1c11.7,0,16.5,6,16.5,10.3c0,4-4.1,6.5-7.3,6.5c-2.6,0-3.8-1.3-4.7-3c-3.6-6.8-5.4-8.7-7.7-8.7
			c-2.2,0-4,2.3-3.8,6.5c0,6.1,1.8,15,1.8,18.7h13.2v5.5h-13.2v42.8c0,5.5,0.7,5.9,10.2,6.2v4.2h-34V1276.2z"/>
		<path class="st0" d="M2038.9,1270c0,5.4,0.8,5.9,8.3,6.2v4.2H2015v-4.2c7.4-0.4,8.3-0.8,8.3-6.2v-36.2c0-4.6-0.8-5.4-3.1-5.8
			l-4.3-0.6v-3.8l22.3-3.4l0.8,0.7L2038.9,1270L2038.9,1270z M2021.1,1203.7c0-5.2,3.7-9.3,9.6-9.3c6,0,9.7,4.2,9.7,9.3
			c-0.1,5.2-4,9.3-9.7,9.3C2024.8,1213,2021.1,1208.8,2021.1,1203.7z"/>
		<path class="st0" d="M2106,1264c-4.2,14.1-15.3,17.9-24.8,17.9c-17.3,0-28-10.1-28-30.3c0-9.5,2.6-17.3,7.7-22.8
			c4.9-5.4,12.3-8.5,22.2-8.5c11.7,0,22.3,5,22.3,12.6c0,5-5.5,7-9.1,7c-2.9,0-4.2-1.3-4.9-3.7c-2.2-7-4.7-10.8-9.3-10.8
			c-6.4,0-12,6.7-12,23.7c0,15.9,6,24.8,16.1,24.8c7.4,0,12.1-3.5,16.1-11.6L2106,1264z"/>
		<path class="st0" d="M2173.5,1278.2c-4.2,1.8-10.9,3.6-16.4,3.6c-5.3,0-7.2-3.1-8.9-7.1c-4.1,2.8-9.8,7.1-17.1,7.1
			c-11.7,0-18-8.2-18-17.3c0-6.7,3-11.7,12.6-14.9c7.9-2.5,16.7-5,22.3-8.3v-6.2c0-7.8-4.2-9.9-8-9.9c-4,0-8.2,2.2-11.3,11.9
			c-0.8,2.6-2.2,4.3-4.7,4.3c-2.6,0-9.1-2-9.1-6.8c0-7.4,10.7-14.4,26.7-14.4c20,0,21.6,9.6,21.6,17v27.6c0,7.3,2.2,9,4,9.5
			s4.2,0.6,5.9,0.4L2173.5,1278.2z M2148,1246.8c-2.8,1.4-7.3,3-11.7,5.2c-4.8,2.3-7,4.9-7,10.7c0,6.7,4,10.9,9.6,10.9
			c3.7,0,9-2,9.1-9.6L2148,1246.8L2148,1246.8z"/>
		<path class="st0" d="M637.2,1400.1c-3.8,10.2-11.3,17.3-25.2,17.3c-21,0.1-28.9-13.3-28.9-30.7c0-8.4,2.2-16.2,6.9-21.8
			c4.8-5.6,12-9.1,21.8-9.1c24.4,0,26.1,17.9,26.1,24.6c0,4-2.2,4.9-5.9,4.9h-32c0,12.6,3.6,24.1,16.7,24.1
			c8.1,0,13.1-4.6,16.5-11.5L637.2,1400.1z M617.6,1379.9c3,0,3.8-0.8,3.8-4c0-5.3-1.2-15.2-9.8-15.2c-9.5,0-11.5,11.9-11.5,19.2
			H617.6z"/>
		<path class="st0" d="M662.5,1411.7c7-0.2,8.2-1.3,10.3-7c3.4-8.6,7.7-21.6,11.7-33.2L698,1333h12.8l24.3,72.5
			c1.8,5.5,3.2,6,9.7,6.2v4.2h-35.2v-4.2l6.4-0.5c3-0.2,3.5-1.8,2.5-4.8l-6.9-21H687c-2.3,7.7-4.7,14.5-6.2,21.2
			c-0.7,3-0.6,4.3,2.4,4.6l6.8,0.5v4.2h-27.4L662.5,1411.7L662.5,1411.7z M709.9,1380.2l-10.3-32.2h-0.4c-1.3,3.8-9,27.9-10.4,32.2
			H709.9z"/>
		<path class="st0" d="M746,1411.7c7.4-0.4,8.1-0.8,8.1-6.2v-36.2c0-4.6-0.8-5.4-3.1-5.8l-4.4-0.6v-3.8l21.6-3.4l1.7,8.6
			c7.7-4.8,13.3-8.6,20.9-8.6c12,0,18,7.1,18,18.7v31c0,5.4,0.8,5.9,8.3,6.2v4.2h-31.3v-4.2l3.1-0.2c3.2-0.2,4.2-1.1,4.2-5.5v-29.6
			c0-8.4-3.8-12.3-10.5-12.3c-5.5,0-9.5,3.1-11.4,6.8c-1,1.8-1.2,4.1-1.2,7v28.2c0,4.4,1,5.3,4.3,5.5l3,0.2v4.2H746V1411.7z"/>
		<path class="st0" d="M883.9,1413.7c-4.2,1.8-10.9,3.6-16.4,3.6c-5.3,0-7.2-3.1-8.9-7.1c-4.1,2.8-9.8,7.1-17.1,7.1
			c-11.7,0-18-8.2-18-17.3c0-6.7,3-11.7,12.6-14.9c7.9-2.5,16.7-5,22.3-8.3v-6.2c0-7.8-4.2-9.9-8-9.9c-4,0-8.1,2.2-11.3,11.9
			c-0.8,2.6-2.2,4.3-4.7,4.3c-2.6,0-9.1-2-9.1-6.8c0-7.4,10.7-14.4,26.7-14.4c20,0,21.6,9.6,21.6,17v27.6c0,7.3,2.2,9,4,9.5
			s4.2,0.6,5.9,0.4L883.9,1413.7z M858.4,1382.3c-2.8,1.4-7.3,3-11.7,5.2c-4.8,2.3-6.9,4.9-6.9,10.7c0,6.7,4,10.9,9.6,10.9
			c3.7,0,9-2,9.1-9.6L858.4,1382.3L858.4,1382.3z M845.1,1350.1l16.2-16.5c4.2-4.3,6.2-5.6,8.5-5.6c2.4,0,5.8,3.7,5.8,6.5
			c0,2.9-3.6,5.2-7.7,7.4l-20.6,11.5L845.1,1350.1z"/>
		<path class="st0" d="M909.5,1405.5c0,5.4,0.8,5.9,8.3,6.2v4.2h-32.2v-4.2c7.4-0.4,8.3-0.8,8.3-6.2v-64.9c0-4.7-0.8-5.5-3.2-5.9
			l-4.3-0.7v-3.8l22.4-3.1l0.8,0.7L909.5,1405.5L909.5,1405.5z"/>
		<path class="st0" d="M946.2,1405.5c0,5.4,0.8,5.9,8.3,6.2v4.2h-32.2v-4.2c7.4-0.4,8.3-0.8,8.3-6.2v-36.2c0-4.6-0.8-5.4-3.1-5.8
			l-4.3-0.6v-3.8l22.3-3.4l0.8,0.7L946.2,1405.5L946.2,1405.5z M928.4,1339.2c0-5.2,3.7-9.3,9.6-9.3c6,0,9.7,4.2,9.7,9.3
			c-0.1,5.2-4,9.3-9.7,9.3C932.1,1348.5,928.4,1344.3,928.4,1339.2z"/>
		<path class="st0" d="M997.5,1375.1c-1.8-8.5-6.8-14.4-13.4-14.4c-5.4,0-8.7,3.4-8.9,7.9c0,5.6,6.1,8.3,12.3,10.4
			c11.5,4.1,18,9,18,19.4c0,11.6-9.1,18.8-23.7,18.8c-6.8,0-15.5-1.7-19.8-5.6l-1.3-17.3h4.1c2.9,10.1,8.9,17.9,17.5,17.9
			c5.6,0,9.2-3.1,9.2-8.3c0-6.5-6.4-9.8-11.9-11.7c-10.2-3.5-18.2-8.6-18.2-18.1c0-11.9,9-18.5,23-18.5c6,0,12.6,1.2,17.1,4.1v15.3
			L997.5,1375.1L997.5,1375.1z"/>
		<path class="st0" d="M1067.9,1400.1c-3.8,10.2-11.3,17.3-25.2,17.3c-21,0.1-28.9-13.3-28.9-30.7c0-8.4,2.2-16.2,7-21.8
			c4.8-5.6,12-9.1,21.8-9.1c24.4,0,26.1,17.9,26.1,24.6c0,4-2.2,4.9-5.9,4.9h-32.2c0,12.6,3.6,24.1,16.7,24.1
			c8.1,0,13.1-4.6,16.5-11.5L1067.9,1400.1z M1048.2,1379.9c3,0,3.8-0.8,3.8-4c0-5.3-1.2-15.2-9.8-15.2c-9.5,0-11.5,11.9-11.5,19.2
			H1048.2z"/>
		<path class="st0" d="M1126.5,1333c13.4,20.1,27.2,40.1,41,60.4l0.5,0.1V1361c0-8.4-0.2-13.1-0.7-17.3c-0.4-4-1.8-5.6-5.2-6
			l-6.4-0.6v-4.2h28.6v4.2l-4.3,0.5c-2.9,0.4-4.3,2.2-4.8,6.1c-0.5,4.1-0.6,8.7-0.6,17.3v54.9h-11.4c-15.2-22.9-30.6-45.8-46.1-68.8
			h-0.5v40.7c0,8.4,0.2,13.1,0.7,17.3c0.4,4,1.8,5.6,5.2,6l6.4,0.6v4.2h-28.6v-4.2l4.3-0.5c2.9-0.4,4.3-2.2,4.8-6.1
			c0.5-4.1,0.6-8.7,0.6-17.3v-43.5c0-6.4-0.7-6.7-9.9-7.2v-4.2L1126.5,1333L1126.5,1333z"/>
		<path class="st0" d="M1232.5,1409.1c-4.3,2.3-11.3,8.3-21.5,8.3c-8.7,0-17.3-4.1-17.3-18v-30.1c0-4.6-0.8-5.4-3.2-5.8l-4.3-0.6
			v-3.8l22.4-3.4l0.8,0.7v39.2c0,9.3,4.4,13.4,10.7,13.4c5.5,0,9.7-3.2,11.4-7c0.7-1.6,1-4.4,1-7v-25.9c0-4.6-0.8-5.4-3.2-5.8
			l-4.3-0.6v-3.8l22.4-3.4l0.8,0.7v49c0,5.4,0.8,5.9,8.1,6.2v4.2h-22.8L1232.5,1409.1z"/>
		<path class="st0" d="M1330.3,1415.9H1300v-4.2l3-0.2c3.4-0.2,4.3-1.1,4.3-5.5v-29.2c0-7.1-2.3-12.7-9.7-12.7
			c-5.5,0-10.2,3.2-11.9,8.6c-0.6,1.7-0.7,3.6-0.7,5.9v27.4c0,4.4,1,5.3,4.3,5.5l3,0.2v4.2h-31.2v-4.2c7.4-0.4,8.2-0.8,8.2-6.2
			v-36.2c0-4.6-0.8-5.4-3.1-5.8l-4.4-0.6v-3.8l21.6-3.4l1.7,8.6c5.8-3.6,12-8.6,20.3-8.6c8.9,0,13.5,4.3,16.3,9.1
			c4.8-3.2,12.1-9.1,21-9.1c12.3,0,18.5,7.1,18.5,18.7v31c0,5.4,0.8,5.9,8.3,6.2v4.2h-31.3v-4.2l3.1-0.2c3.2-0.2,4.2-1.1,4.2-5.5
			v-29.2c0-8.6-4.1-12.7-10.4-12.7c-5.2,0-9.6,3-11.3,8.5c-0.5,1.6-0.6,3.7-0.6,6v27.4c0,4.3,1,5.3,4.3,5.5l3,0.2v4.3H1330.3z"/>
		<path class="st0" d="M1429.3,1400.1c-3.8,10.2-11.3,17.3-25.2,17.3c-21,0.1-28.9-13.3-28.9-30.7c0-8.4,2.2-16.2,7-21.8
			c4.8-5.6,12-9.1,21.8-9.1c24.4,0,26.1,17.9,26.1,24.6c0,4-2.2,4.9-5.9,4.9H1392c0,12.6,3.6,24.1,16.7,24.1
			c8.1,0,13.1-4.6,16.5-11.5L1429.3,1400.1z M1409.6,1379.9c3,0,3.8-0.8,3.8-4c0-5.3-1.2-15.2-9.8-15.2c-9.5,0-11.5,11.9-11.5,19.2
			H1409.6z M1398.2,1350.1l16.2-16.5c4.2-4.3,6.2-5.6,8.5-5.6c2.4,0,5.8,3.7,5.8,6.5c0,2.9-3.6,5.2-7.7,7.4l-20.6,11.5
			L1398.2,1350.1z"/>
		<path class="st0" d="M1435.8,1411.7c7.3-0.4,8.1-0.8,8.1-6.2v-36.2c0-4.6-0.8-5.5-3.2-5.8l-4.3-0.6v-3.8l21.6-3.4l1.4,10.2
			c7.3-7.2,11.1-10.2,15.8-10.2c5,0,7.4,3.2,7.4,7.3c0,2.2-0.5,4.4-1.7,6.1c-1.3,1.6-3.1,2.6-5.2,2.6c-1.7,0-3.1-0.7-4.4-1.4
			c-2.9-1.7-4.8-2.6-6.7-2.6c-2.9,0-5,2.9-5,10.2v27.6c0,5.4,1,5.8,10.7,6.2v4.2h-34.5L1435.8,1411.7L1435.8,1411.7z"/>
		<path class="st0" d="M1511,1405.5c0,5.4,0.8,5.9,8.3,6.2v4.2h-32.2v-4.2c7.4-0.4,8.3-0.8,8.3-6.2v-36.2c0-4.6-0.8-5.4-3.1-5.8
			l-4.3-0.6v-3.8l22.3-3.4l0.8,0.7L1511,1405.5L1511,1405.5z M1493.2,1339.2c0-5.2,3.7-9.3,9.6-9.3c6,0,9.7,4.2,9.7,9.3
			c-0.1,5.2-4,9.3-9.7,9.3C1496.9,1348.5,1493.2,1344.3,1493.2,1339.2z"/>
		<path class="st0" d="M1578.1,1399.5c-4.2,14.1-15.3,17.9-24.8,17.9c-17.3,0-28-10.1-28-30.3c0-9.5,2.6-17.3,7.7-22.8
			c4.9-5.4,12.3-8.5,22.2-8.5c11.7,0,22.3,5,22.3,12.6c0,5-5.5,7-9.1,7c-2.9,0-4.2-1.3-4.9-3.7c-2.2-7-4.7-10.8-9.3-10.8
			c-6.4,0-12,6.7-12,23.7c0,15.9,6,24.8,16.1,24.8c7.4,0,12.1-3.5,16.1-11.6L1578.1,1399.5z"/>
		<path class="st0" d="M1645.6,1413.7c-4.2,1.8-10.9,3.6-16.4,3.6c-5.3,0-7.2-3.1-8.9-7.1c-4.1,2.8-9.8,7.1-17.1,7.1
			c-11.7,0-18-8.2-18-17.3c0-6.7,3-11.7,12.6-14.9c7.9-2.5,16.7-5,22.3-8.3v-6.2c0-7.8-4.2-9.9-8-9.9c-4,0-8.2,2.2-11.3,11.9
			c-0.8,2.6-2.2,4.3-4.7,4.3c-2.6,0-9.1-2-9.1-6.8c0-7.4,10.7-14.4,26.7-14.4c20,0,21.6,9.6,21.6,17v27.6c0,7.3,2.2,9,4,9.5
			s4.2,0.6,5.9,0.4L1645.6,1413.7z M1620.1,1382.3c-2.8,1.4-7.3,3-11.7,5.2c-4.8,2.3-7,4.9-7,10.7c0,6.7,4,10.9,9.6,10.9
			c3.7,0,9-2,9.1-9.6V1382.3z"/>
	</g>
	<g id="LaCCAN">
		<path class="st0" d="M796.9,589c0,16,1.3,21.5,8.1,24.4c6.8,2.6,18.6,3.3,34.9,3.3c34.2,0,52.1-4.2,58.6-46.9h9.8l-3.9,58.3H735.3
			v-9.4c28.7-2,29.3-2.6,29.3-20.8V433c0-18.2-0.7-18.9-29.3-20.8v-9.4h92.8v9.4c-30.3,2-31.3,2.6-31.3,20.8v156H796.9z"/>
		<path class="st0" d="M1050,586.7c0,20.5,5.5,26.7,11.4,28c4.9,1.3,12.1,0.7,16.6-0.3l2,7.8c-12.4,6.2-26.4,9.8-38.4,9.8
			c-11.4,0-16.6-7.5-21.2-19.5c-10.4,6.8-28.3,18.9-48.5,19.5c-30.6,0-46.9-21.8-46.9-46.3c0-15.3,6.8-31.6,30.3-38.8
			c25.7-8.1,57.3-16.3,65.5-24.8v-13.7c0-26.1-15-32.6-27.7-32.6c-13,0-26.4,7.8-33.6,31.9c-1.6,5.5-3.6,9.1-10.4,9.1
			c-6.2,0-18.2-4.9-18.2-15.3c0-17.9,29-37.1,65.8-37.1c49.2,0,53.4,24.4,53.4,43.3L1050,586.7L1050,586.7z M1020.7,535.6
			c-7.2,4.6-24.4,10.8-37.5,15.6c-18.2,6.8-25.4,14.7-25.4,30c0,19.2,9.8,33.6,30,33.6c12.7,0,32.9-6.8,32.9-33.2V535.6z"/>
		<path class="st0" d="M1285.5,461.3h-9.8c-6.2-38.4-29.3-52.1-62.5-52.1c-60.6-0.3-81.8,53.4-81.8,106.8
			c0,39.4,14,105.5,81.1,105.5c42.7,0,59.3-24.8,68.4-58.6h9.8l-4.6,54.4c-15.6,8.5-45.6,15.6-71.7,15.6c-36.5,0-68.4-7.5-88.6-27.7
			c-19.5-19.5-31-50.2-31-88.3c0-36.8,11.1-64.8,29.6-85.7c19.5-21.8,51.8-33.6,91.9-33.6c29.6,0,54.4,5.9,69.1,12.7L1285.5,461.3
			L1285.5,461.3z"/>
		<path class="st0" d="M1506.4,461.3h-9.8c-6.2-38.4-29.3-52.1-62.5-52.1c-60.6-0.3-81.8,53.4-81.8,106.8
			c0,39.4,14,105.5,81.1,105.5c42.7,0,59.3-24.8,68.4-58.6h9.8l-4.6,54.4c-15.6,8.5-45.6,15.6-71.7,15.6c-36.5,0-68.4-7.5-88.6-27.7
			c-19.5-19.5-30.9-50.2-30.9-88.3c0-36.8,11.1-64.8,29.6-85.7c19.5-21.8,51.8-33.6,91.9-33.6c29.6,0,54.4,5.9,69.1,12.7V461.3z"/>
		<path class="st0" d="M1651.3,628.1v-9.4l14.7-1.3c10.4-1,12.1-4.6,8.8-14l-21.8-62.2h-73c-7.5,23.1-14.3,43.3-19.9,62.9
			c-2.6,8.8-1.6,12.1,8.1,13l16.9,1.6v9.4h-71.7v-9.4c20.5-1,23.5-4.9,30.3-22.5c11.4-29.6,25.1-68.7,35.2-97.1l34.2-96.4h24.1
			l69.1,196.4c5.9,16.9,9.4,17.9,28.3,19.5v9.4L1651.3,628.1L1651.3,628.1z M1616.8,435.6h-1c-9.8,28.7-21.2,60.6-31.6,93.2h64.8
			L1616.8,435.6z"/>
		<path class="st0" d="M1803.4,402.7c42,59.9,84.4,119.9,127,179.8l0.7,0.7V468.8c0-17.3-0.7-29.6-2.3-40.4
			c-2-13.7-9.8-14.7-30.9-16.3v-9.4h77.2v9.4c-16.9,1.3-24.8,2.6-26.7,16.3c-1.6,10.8-2.3,23.1-2.3,40.4v159.3h-21.5
			c-45.9-65.5-92.2-130.6-138.8-196.1h-0.7v130c0,17.3,0.7,29.6,2.3,40.4c2,13.7,9.8,14.7,30.9,16.3v9.4h-77.2v-9.4
			c16.9-1.3,24.8-2.6,26.7-16.3c1.6-10.8,2.3-23.1,2.3-40.4V433c0-18.2-0.7-18.9-29.3-20.8v-9.4h62.6V402.7z"/>
	</g>
	<g id="logo">
		<g>
			<path class="st0" d="M1844.3,945.1c-90.7-4.5-182.3-9.9-272.1-15.9c-51.2-3.4-121.4-8.1-214.8-16c-96-8.1-144.2-12.2-205.1-19.8
				c-78.2-9.8-157.8-22.8-236.5-38.7c-90.8-20.3-180.8-46-268-76.5C417.4,697.4,199.4,580.6,0,431l21.7-29
				c196.5,147.4,411.2,262.5,638.1,342c85.8,30.1,174.5,55.4,263.5,75.3c77.5,15.6,156.2,28.5,233.5,38.1
				c60.2,7.5,108.1,11.6,203.6,19.7c93.1,7.9,163.1,12.6,214.1,16c89.6,6,180.9,11.3,271.5,15.8L1844.3,945.1z"/>
		</g>
		<g>
			<path class="st1" d="M1637.4,1046.3c-35.8-7.1-87.3-17.3-149.4-29.7c-165.5-33-195.1-39.4-212.7-43.2
				c-94.9-20.5-142.6-30.8-201.3-47.1c-44.4-12.3-127-35.3-226.6-76.2c-1.2-0.5-122.4-50.6-243.2-122.9
				C345.3,572,107,306.4,40.1,228.7l27.4-23.6c66,76.7,301,338.6,555.1,490.9C741,766.9,859.9,816,861,816.5
				c97.6,40.1,178.9,62.7,222.5,74.8c57.7,16,105.1,26.3,199.3,46.6c17.5,3.8,46.9,10.1,212.2,43.1c62.1,12.4,113.6,22.6,149.4,29.7
				L1637.4,1046.3z"/>
		</g>
		<g>
			<path class="st2" d="M1425.5,1146.3c-34.3-17.3-69.6-34.5-104.7-51c-48.1-22.6-80.5-36.7-114.8-51.6
				c-24-10.4-48.8-21.2-79.9-35.3c-41.3-18.7-103.7-47.1-168.9-81.4l-6.8-3.6C851.3,870.7,778,822.2,733.9,790.8
				C634.7,720.1,564,651.4,530,618.3c-205.7-200-385.5-486-453.3-599.8L107.8,0c67,112.5,244.8,395.4,447.4,592.3
				c33.4,32.4,102.8,99.9,199.7,169c43.2,30.8,115.1,78.3,212.3,130l6.9,3.6c64.3,33.8,126.1,61.9,167,80.5
				c30.9,14,55.5,24.7,79.4,35.1c34.5,15,67.1,29.2,115.8,52c35.5,16.7,71,34,105.7,51.5L1425.5,1146.3z"/>
		</g>
	</g>
</g>
</svg>
