<?xml version="1.0" encoding="utf-8"?>
<!-- Generator: Adobe Illustrator 24.1.2, SVG Export Plug-In . SVG Version: 6.00 Build 0)  -->
<svg version="1.1" id="Camada_1" xmlns="http://www.w3.org/2000/svg" xmlns:xlink="http://www.w3.org/1999/xlink" x="0px" y="0px"
	 viewBox="0 0 2758.7 756.5" style="enable-background:new 0 0 2758.7 756.5;" xml:space="preserve">
<style type="text/css">
	.st0{fill:#303199;}
</style>
<path class="st0" d="M2512.1,749.8c0,4.5-2.3,6.7-6.7,6.7h-10.5c-4.5,0-6.7-2.3-6.7-6.7V301.5c0-19.7,3.5-37.3,10.5-52.5
	c7-15.2,16.7-28.1,29.2-38.2c12.5-10.2,26.9-18,43.4-23.4c16.6-5.4,34.1-8.1,52.5-8.1c18.5,0,35.8,2.7,52,8.1
	c16.2,5.4,30.4,13.2,42.5,23.4s21.8,23,29.2,38.2c7.3,15.2,11,32.8,11,52.5v153c0,19.7-3.6,37.3-11,52.5s-17.1,28.1-29.2,38.2
	c-12.1,10.2-26.3,18-42.5,23.4s-33.6,8.1-52,8.1c-15.2,0-28.1-1.3-38.2-3.9c-10.2-2.5-18.6-5.4-25.3-8.6c-6.7-3.1-12.2-6.1-16.7-8.6
	s-8.6-3.9-12.5-3.9c-9,0-14.3,2.5-16.2,7.6s-2.9,12.1-2.9,21.1L2512.1,749.8L2512.1,749.8z M2624,203c-14,0-27.7,2.1-41.1,6.2
	c-13.4,4.1-25.3,10.2-35.8,18.2s-19,18.2-25.3,30.6c-6.4,12.5-9.6,26.9-9.6,43.4v155.8c0,16.6,3.4,30.9,10,43
	c6.7,12.1,15.2,22,25.8,29.7s22.5,13.4,35.8,17.2c13.4,3.9,26.7,5.7,40.2,5.7s26.6-2.1,39.7-6.2c13.1-4.1,24.8-10.2,35.3-18.2
	s19.1-18.2,25.8-30.6s10-26.9,10-43.4V301.5c0-16.6-3.4-31.1-10-43.4c-6.7-12.5-15.2-22.6-25.8-30.6c-10.5-8-22.3-14-35.3-18.2
	C2650.6,205.1,2637.3,203,2624,203z"/>
<path class="st0" d="M2140.3,224.1c2.5,0,5.9-2.4,10-7.1s9.9-9.9,17.2-15.2c7.3-5.4,16.6-10.5,27.7-15.2s24.7-7.1,40.7-7.1
	c15.2,0,29.8,2.4,43.4,7.1c13.7,4.7,25.8,11.7,36.3,21.1c10.5,9.2,18.8,20.2,24.8,32.9c6.1,12.7,9.1,27.1,9.1,43v282
	c0,4.5-2.3,6.7-6.7,6.7h-10.5c-4.5,0-6.7-2.2-6.7-6.7V288.1c0-30.6-8.2-52.4-24.7-65.5s-37-19.6-61.7-19.6
	c-26.6,0-47.7,6.5-63.2,19.6s-23.2,34.9-23.2,65.5v277.2c0,4.5-2.3,6.7-6.7,6.7h-10.2c-4.7,0-7-2.2-7-6.7V288.1
	c0-30.6-7.9-52.4-23.4-65.5c-15.6-13.1-36.8-19.6-63.5-19.6c-24.8,0-45.5,6.5-62.1,19.6s-24.8,34.9-24.8,65.5v277.2
	c0,4.5-2.3,6.7-6.7,6.7h-10.5c-4.5,0-6.7-2.2-6.7-6.7v-282c0-16,3-30.3,9.1-43s14.3-23.7,24.8-32.9s22.6-16.2,36.3-21.1
	c13.7-4.7,28.2-7.1,43.4-7.1c16,0,29.4,2.4,40.7,7.1c11.1,4.7,20.3,9.9,27.7,15.2c7.3,5.4,13.1,10.5,17.2,15.2
	C2134.4,221.7,2137.8,224.1,2140.3,224.1z"/>
<path class="st0" d="M1801.9,454.4c0,19.7-3.5,37.3-10.5,52.5c-7,15.2-16.7,28.1-29.2,38.2c-12.5,10.2-26.7,18-43,23.4
	c-16.2,5.4-33.6,8.1-52,8.1c-17.8,0-35.1-2.7-51.6-8.1c-16.6-5.4-30.9-13.2-43-23.4s-21.8-23-29.2-38.2c-7.4-15.2-11-32.8-11-52.5
	V301.5c0-19.7,3.6-37.3,11-52.5c7.3-15.2,17.1-28.1,29.2-38.2c12.1-10.2,26.4-18,43-23.4s33.8-8.1,51.6-8.1c18.5,0,35.8,2.7,52,8.1
	c16.2,5.4,30.6,13.2,43,23.4c12.5,10.2,22.1,23,29.2,38.2c7,15.2,10.5,32.8,10.5,52.5V454.4z M1667.2,552.9
	c13.4,0,26.7-2.1,40.2-6.2c13.4-4.1,25.3-10.2,35.8-18.2s19-18.2,25.3-30.6c6.4-12.5,9.6-26.9,9.6-43.4v-153
	c0-16.6-3.1-31.1-9.6-43.4c-6.4-12.5-14.8-22.6-25.3-30.6s-22.5-14-35.8-18.2c-13.4-4.1-26.7-6.2-40.2-6.2
	c-13.4,0-26.7,2.1-40.2,6.2c-13.4,4.1-25.3,10.2-35.8,18.2s-19,18.2-25.3,30.6c-6.4,12.5-9.6,26.9-9.6,43.4v153
	c0,16.6,3.1,31.1,9.6,43.4c6.4,12.5,14.8,22.6,25.3,30.6s22.5,14,35.8,18.2C1640.5,550.8,1653.8,552.9,1667.2,552.9z"/>
<path class="st0" d="M1285.9,576.7c-18.5,0-36.1-2.7-52.5-8.1c-16.6-5.4-30.9-13.2-43-23.4s-21.7-23-28.7-38.2s-10.5-32.8-10.5-52.5
	v-153c0-19.7,3.5-37.3,10.5-52.5c7-15.2,16.6-28.1,28.7-38.2c12.1-10.2,26.4-18,43-23.4s34.1-8.1,52.5-8.1
	c32.6,0,60.5,8.1,84.1,24.3s39.5,39.7,47.8,70.2c0,5.1-2.3,7.6-6.7,7.6h-10.5c-3.1,0-5.4-1.9-6.7-5.7
	c-10.2-28.7-25.2-47.9-44.9-57.9c-19.7-9.9-40.8-14.8-63.1-14.8c-13.4,0-26.7,2.1-40.2,6.2c-13.4,4.1-25.3,10.2-35.8,18.2
	s-19,18.2-25.3,30.6c-6.4,12.5-9.6,26.9-9.6,43.4v153c0,16.6,3.1,31.1,9.6,43.4c6.4,12.5,14.8,22.6,25.3,30.6s22.5,14,35.8,18.2
	c13.4,4.1,26.7,6.2,40.2,6.2c22.3,0,43.3-5,63.1-14.8c19.7-9.9,34.7-29.2,44.9-57.9c1.2-3.9,3.5-5.7,6.7-5.7h10.5
	c4.5,0,6.7,2.5,6.7,7.6c-8.2,30.6-24.2,54-47.8,70.2S1318.3,576.7,1285.9,576.7z"/>
<path class="st0" d="M1002.9,302c0-16.7-3.4-31.2-10-43.7c-6.7-12.5-15.5-22.8-26.3-30.7c-10.9-8-23.1-14-36.8-18.3
	c-13.7-4.1-27.2-6.3-40.7-6.3c-22.3,0-42.8,5-61.6,14.8c-18.8,9.9-33.3,29.2-43.4,57.9c-0.6,3.9-2.9,5.7-6.7,5.7h-10.5
	c-4.5,0-6.7-2.5-6.7-7.6c7.6-30.6,23-54,45.9-70.2c23-16.2,50.7-24.3,83.1-24.3c18.5,0,36.2,2.7,53,8.1
	c16.8,5.4,31.6,13.2,43.9,23.4c12.5,10.2,22.3,23,29.7,38.2c7.3,15.2,11,32.8,11,52.5v158.7c0,19.1-3.5,36.1-10.5,50.7
	c-7,14.6-16.6,26.9-28.7,36.8c-12.1,9.9-26.5,17.2-43,22c-16.6,4.7-34.1,7.1-52.5,7.1c-17.8,0-34.9-1.9-51.2-5.7
	c-16.2-3.8-30.6-9.9-43-18.5c-12.5-8.6-22.3-19.4-29.7-32.3s-11-28.3-11-46.1c0-36.8,9.9-62.8,29.7-78.1
	c19.7-15.2,43-22.9,69.8-22.9h128c12.1,0,18.2-6.1,18.2-18.3V302L1002.9,302z M1002.9,415.3c0-12.1-6.1-18.2-18.2-18.2h-129
	c-9,0-17.8,0.8-26.7,2.4c-9,1.6-16.9,5.1-23.8,10.5c-7,5.4-12.7,13.1-17.2,23s-6.7,23.4-6.7,40.7c0,16,3.4,29,10,39.2
	c6.7,10.2,15.2,18.3,25.8,24.3c10.5,6.1,22.5,10.2,35.8,12.5c13.4,2.3,26.4,3.4,39.2,3.4c13.4,0,26.7-1.6,40.2-4.7
	c13.4-3.1,25.3-8.5,35.8-15.7c10.5-7.3,19-16.8,25.3-28.7c6.4-11.7,9.6-26.3,9.6-43.4L1002.9,415.3L1002.9,415.3z"/>
<path class="st0" d="M633,565.2c0,4.5-2.3,6.7-6.7,6.7h-10.5c-4.5,0-6.7-2.2-6.7-6.7V35.8c0-4.5,2.2-6.7,6.7-6.7h10.5
	c4.5,0,6.7,2.3,6.7,6.7V565.2z"/>
<path class="st0" d="M259.8,601c10.1,0,18.2-8.2,18.2-18.3v-28.1c0-0.6-0.1-1.1-0.3-2c0-0.4-0.1-0.7-0.1-1.1l-0.3-2h2h2
	c12,0,21.8-9.7,21.8-21.8v-30.6c0-7-3.7-14-9.5-17.9l-0.8-0.6l0.1-1.1c4.8-41.6,24.3-78.9,55.1-105.1
	c47.4-40.1,74.6-98.9,74.6-161.1c0.6-56.3-21.5-109.4-61.9-149.6C320.7,21.8,267.8,0,211.5,0h-0.7c-55,0.3-106.9,21.6-146.6,60.2
	S1.7,150.3,0.1,204.9c-1.8,63.9,24.7,124.6,72.7,166.3c32.4,28,52.6,65.9,57.1,106.5l0.1,1.1l-0.8,0.6c-5.9,4.2-9.6,10.9-9.6,17.9
	v30.5c0,12,9.7,21.8,21.8,21.8h2h2.3l-0.4,2.1c-0.3,0.8-0.3,1.8-0.3,2.8v28.1c0,10.1,8.2,18.3,18.2,18.3 M264.7,583
	c0,2.7-2.4,4.9-5.1,4.9h-96.9c-2.7,0-5.1-2.4-5.1-4.9v-28.1c0-2.7,2.4-5.1,5.1-5.1h96.9c2.8,0,5.1,2.1,5.1,5.1V583L264.7,583z
	 M290,528.1c0,4.6-3.9,8.4-8.4,8.4H141.3c-4.6,0-8.4-3.9-8.4-8.4v-30.6c0-4.6,3.9-8.4,8.4-8.4h140.3c4.6,0,8.4,3.9,8.4,8.4V528.1z
	 M339.7,362.6c-32.8,27.7-53.9,67.4-59.4,111.7l-0.3,1.4h-1.7H144.5h-1.6l-0.3-1.4c-5.5-43.2-27.2-83.4-61.3-113
	c-45.2-39.1-70-96-68.1-155.7c1.7-51.5,23-99.6,60.1-135.5c37.2-36.2,85.8-56.1,137.1-56.3h0.7c52.7,0,102.4,20.5,140,57.7
	c37.6,37.4,58.3,87.3,58.3,140.3C409.5,269.7,384,324.7,339.7,362.6z"/>
<path class="st0" d="M343.7,207.1c-2.8-4.5-6.5-7.9-11.1-10.1l-1-0.4l-3.4-1.4l1-3.5c1.4-4.7,2.1-9.8,2.4-15.3
	c0.4-9.8-1-20.4-4.1-30c-2.3-7-6.5-16.9-13.8-23.8c-4.1-3.9-8.7-6.3-13.5-7l-2.8-0.4l-0.6-2.8c-2.5-10.4-8.7-19.8-18-26.9
	C267.7,76.8,252.9,72,238.1,72c-7.7,0-14.3,2.5-19.8,7.2c-1.3,1.1-2.5,2.5-3.7,3.9l-3.4,4.2l-3.4-4.2c-1.1-1.4-2.4-2.8-3.7-3.9
	c-5.3-4.8-12.1-7.2-19.8-7.2c-14.8,0-29.5,4.9-40.7,13.5c-9.3,7.2-15.5,16.6-18,26.9l-0.6,2.7l-2.8,0.6c-5.1,1-9.8,3.4-13.5,7l0,0
	l0,0c-7.3,6.9-11.5,16.7-13.8,23.8c-3.1,9.5-4.5,20.1-4.1,30c0.3,5.1,1,10.4,2.4,15.3l1,3.7l-3.4,1.4c-5.1,2.1-9.1,5.8-11.8,10.4
	c-5.2,8.4-7.7,21.2-7.7,40c0,21.6,9.1,34,16.7,40.5c4.9,4.2,10.4,7.3,16.7,9.1l2.5,0.7l0.6,2.5c2.4,10.6,7,20.7,13.9,29.1
	c6.7,8.4,21.5,22.4,45.1,22.4c16.7,0,29.3-9.5,36.9-17.6c1.4-1.4,2.8-3.2,4.2-4.8l3.4-4.2l3.4,4.2c1.3,1.7,2.8,3.4,4.2,4.8
	c7.7,8,20.3,17.6,36.9,17.6c23.6,0,38.4-14.1,45.1-22.4c6.7-8.4,11.5-18.5,13.8-29.1l0.6-2.5l2.5-0.7c6.2-1.8,11.8-4.9,16.8-9.1
	c7.6-6.5,16.7-19,16.7-40.5C351.4,228.2,348.9,215.6,343.7,207.1z M204.9,150.3v4.2h-4.2h-12.9H185l-1.1-2.7
	c-2.5-6.1-7.3-11.1-13.5-13.5c-3-1.1-6.1-1.8-9.2-1.8c-12.1,0-22.4,8.7-24.4,20.8c-1.4,9.2,2.5,18.5,10.1,23.8
	c4.2,3,9.2,4.5,14.2,4.5c10.1,0,19-5.9,22.8-15.4l1.1-2.7h2.8h12.9h4.2v4.2v136.6v0.8l-0.3,0.8l-0.1,0.3c-0.6,1.3-1.1,2.7-2,3.9
	c-2,3.7-4.9,7.3-8,10.7c-8.4,8.9-18,13.5-27.5,13.5c-13.7,0-25.7-6.1-34.9-17.6c-8.2-10.3-11.8-22.1-11.8-29.3
	c0-3.7-2.8-6.5-6.5-6.5c-2.4,0-9.8-1.3-16.8-7.3c-8-7-12.2-17.2-12.2-30.6c0-10.9,0.8-19.6,2.5-25.8c1.1-4.1,4.9-7,9.1-7h34.3
	c11.7,0,21.8,8.7,23.5,20.3l0.6,3.4l-3.1,1.3c-6.1,2.5-11,7.5-13.4,13.5c-2.8,7-2.3,14.6,1.4,21.3c3.7,6.5,10.1,11,17.7,12.2
	c1.3,0.3,2.5,0.3,3.9,0.3c7.9,0,15.4-3.9,19.9-10.4c4.4-6.4,5.6-14.1,3.4-21.3c-2.1-7.2-7.5-12.9-14.5-15.6l-2.5-1l-0.3-2.7
	c-1.4-19.1-17.6-34.2-36.7-34.2h-12.5c-3.2,0-6.1-1.7-7.9-4.2c-3.5-5.3-5.6-12.7-5.9-21.4s0.8-17.2,3.4-25.3
	c2.5-7.9,6.2-14.5,10.4-18.3c2.7-2.5,5.3-3.9,8.2-3.9c1.1,0,2.1,0.3,3.2,0.6c0.6,0.3,1.4,0.3,2,0.3c3.7,0,6.5-2.8,6.5-6.5
	c0-10.4,4.9-19.9,14.1-27l0,0c8.9-6.9,20.7-10.8,32.6-10.8c4.5,0,8.2,1.3,11.1,3.9c2.5,2.2,4.6,5.5,6.1,9.6l0,0l0,0
	c1.7,4.6,2.5,9.4,2.8,14.2L204.9,150.3z M169.1,169c-2.1,2.3-5.2,3.5-8.4,3.5c-0.3,0-0.4,0-0.6,0c-5.8-0.3-10.6-5.1-10.9-10.9
	c-0.3-3.2,1-6.2,3.1-8.6c2.1-2.3,5.2-3.5,8.4-3.5c0.3,0,0.4,0,0.6,0c5.8,0.3,10.6,5.1,10.9,10.9C172.4,163.7,171.4,166.6,169.1,169z
	 M160.3,250.6c0.3,0,0.4,0,0.6,0c3.1,0,6.2,1.3,8.4,3.5c2.1,2.4,3.4,5.3,3.1,8.6c-0.3,5.8-5.1,10.6-10.9,10.9c-0.3,0-0.4,0-0.6,0
	c-3.1,0-6.2-1.3-8.4-3.5c-2.1-2.4-3.4-5.3-3.1-8.6C149.7,255.7,154.5,250.9,160.3,250.6z M326.2,277.7c-7,5.9-14.5,7.3-16.8,7.3
	c-3.7,0-6.5,2.8-6.5,6.5c0,7.2-3.7,19-11.8,29.3c-9.2,11.5-21.3,17.6-34.9,17.6c-12,0-21.6-7.3-27.5-13.5c-3.1-3.4-5.9-7-8.2-10.7
	c-0.8-1.4-1.7-2.8-2-3.9l0,0l0,0l-0.1-0.3l-0.3-0.7v-0.7v-24.8v-4.2h4.2h9.2c20.3,0,36.7-16.6,36.7-36.7v-26v-2.8l2.7-1.1
	c6.1-2.5,11.1-7.3,13.5-13.5c2.8-7,2.4-14.6-1.4-21.3c-3.7-6.5-10.1-11-17.7-12.3c-1.3-0.3-2.7-0.3-3.9-0.3
	c-7.9,0-15.3,3.9-19.8,10.4c-4.4,6.3-5.6,14.1-3.5,21.3s7.3,12.9,14.3,15.7l2.7,1.1v2.8v25.9c0,13.1-10.7,23.8-23.8,23.8h-9.2h-4.2
	V262V113.5v-0.1v-0.1c0.1-5.1,1.1-10.3,2.8-15.2c1.1-3.7,3.4-7,5.9-9.6l0.1-0.1l0.1-0.1c3-2.5,6.6-3.9,11-3.9
	c11.8,0,23.8,3.9,32.6,10.9c9.2,7.2,14.1,16.6,14.1,27c0,0.7,0.1,1.4,0.3,2c0.8,2.7,3.4,4.5,6.2,4.5c0.7,0,1.4-0.1,2-0.3
	c1.1-0.3,2.1-0.6,3.2-0.6c2.8,0,5.5,1.3,8.2,3.9c4.2,3.9,7.8,10.4,10.4,18.2c2.5,8.2,3.7,16.8,3.4,25.3c-0.4,8.7-2.5,16.2-5.9,21.4
	c-0.7,1.1-1.1,2.4-1.1,3.7c0,1.7,0.6,3.4,2,4.6c1.3,1.3,2.8,2,4.6,2c3.7,0,6.5,0.6,8.9,1.7c2.4,1.1,4.2,3,5.6,5.2
	c3.7,6.2,5.6,17,5.6,33.1C338.3,260.4,334.1,270.8,326.2,277.7z M253.5,197.8c-2.1-2.4-3.4-5.3-3.1-8.6c0.3-5.8,5.1-10.6,10.9-10.9
	c0.3,0,0.4,0,0.6,0c3.1,0,6.2,1.3,8.4,3.5c2.1,2.4,3.4,5.3,3.1,8.6c-0.3,5.8-5.1,10.6-10.9,10.9c-0.3,0-0.4,0-0.6,0
	C258.7,201.5,255.7,200.1,253.5,197.8z"/>
</svg>
