<?xml version="1.0" encoding="utf-8"?>
<!-- Generator: Adobe Illustrator 24.1.2, SVG Export Plug-In . SVG Version: 6.00 Build 0)  -->
<svg version="1.1" id="Camada_1" xmlns="http://www.w3.org/2000/svg" xmlns:xlink="http://www.w3.org/1999/xlink" x="0px" y="0px"
	 viewBox="0 0 284.5 93.7" style="enable-background:new 0 0 284.5 93.7;" xml:space="preserve">
<style type="text/css">
	.st0{fill:#162B39;}
	.st1{fill:#F28705;}
	.st2{fill:url(#SVGID_1_);}
	.st3{fill:url(#SVGID_2_);}
</style>
<g id="logo_NEES">
	<polygon class="st0" points="134.4,67 107.3,39.8 107.3,67 97.4,67 97.4,26.8 107.1,26.8 134.4,54.3 134.4,26.8 144.3,26.8 
		144.3,67 	"/>
	<polygon class="st0" points="152.8,67 152.8,26.8 191.7,26.8 191.7,34.5 162.2,34.5 162.2,42.9 186.8,42.9 186.8,50.8 162.2,50.8 
		162.2,59.2 191.7,59.2 191.7,67 	"/>
	<polygon class="st0" points="199.2,67 199.2,26.8 238.1,26.8 238.1,34.5 208.6,34.5 208.6,42.9 233.2,42.9 233.2,50.8 208.6,50.8 
		208.6,59.2 238.1,59.2 238.1,67 	"/>
	<path class="st0" d="M281.9,60.8c-1.4,1.9-3.1,3.4-5.2,4.5s-4.4,1.8-6.8,2.2c-2.4,0.4-4.7,0.6-6.8,0.6c-3.7,0-7.1-0.6-10.4-1.9
		c-3.3-1.2-6.6-3.4-10-6.6l8.5-4.7c2.1,1.5,4.1,2.8,6.1,3.8c2,1,4.3,1.5,7,1.5c0.8,0,1.7-0.1,2.7-0.3c1-0.2,2-0.5,2.9-0.9
		c0.9-0.4,1.7-0.9,2.3-1.6c0.6-0.6,0.9-1.4,0.9-2.3c0-1.1-0.5-2-1.4-2.5c-0.9-0.5-2.3-0.9-4.1-1.2l-9.4-1.4
		c-4.1-0.6-7.3-1.9-9.4-3.8c-2.1-1.9-3.2-4.4-3.2-7.4c0-2.4,0.5-4.5,1.4-6.2c1-1.7,2.3-3.1,3.9-4.2c1.7-1.1,3.6-1.9,5.8-2.3
		c2.2-0.5,4.5-0.7,6.9-0.7c3.6,0,7.1,0.6,10.5,1.8c3.4,1.2,6.6,3.1,9.5,5.6l-8.2,5.2c-3.6-3.1-7.8-4.7-12.5-4.7
		c-0.7,0-1.4,0.1-2.2,0.3s-1.5,0.4-2.1,0.8c-0.6,0.3-1.2,0.8-1.6,1.3c-0.4,0.5-0.6,1.1-0.6,1.8c0,1.1,0.5,2,1.5,2.7
		c1,0.7,2.6,1.1,5,1.4l4.4,0.6c2.2,0.3,4.3,0.7,6.3,1.2c2,0.5,3.7,1.2,5.2,2.1c1.5,0.9,2.7,2,3.6,3.3c0.9,1.4,1.4,3,1.4,4.9
		C284,56.5,283.3,58.9,281.9,60.8"/>
	<polygon class="st1" points="97.9,80.8 97.9,76.2 98.8,76.2 101.2,79.7 101.2,76.2 102,76.2 102,80.8 101.1,80.8 98.7,77.3 
		98.7,80.8 	"/>
	<path class="st1" d="M103.3,76.2h0.8V79c0,0.7,0.6,1.2,1.2,1.2c0.7,0,1.2-0.5,1.2-1.2v-2.8h0.8V79c0,1-0.8,1.8-2,1.8
		c-1.2,0-2-0.8-2-1.8V76.2z M104.5,75.5l1.4-0.7l0.3,0.5l-1.5,0.5L104.5,75.5z"/>
	<path class="st1" d="M110.7,76.2c0.7,0,1.5,0.4,2,1.1l-0.6,0.4c-0.4-0.6-0.9-0.8-1.3-0.8c-0.9,0-1.5,0.8-1.5,1.7s0.7,1.7,1.5,1.7
		c0.4,0,1-0.3,1.3-0.8l0.6,0.4c-0.4,0.7-1.2,1.1-2,1.1c-1.2,0-2.3-1-2.3-2.3C108.4,77.2,109.5,76.2,110.7,76.2"/>
	<polygon class="st1" points="116.9,80.2 116.9,80.8 113.8,80.8 113.8,76.2 114.6,76.2 114.6,80.2 	"/>
	<polygon class="st1" points="121.4,76.2 121.4,76.9 118.7,76.9 118.7,78.2 121,78.2 121,78.8 118.7,78.8 118.7,80.2 121.4,80.2 
		121.4,80.9 117.9,80.9 117.9,76.2 	"/>
	<path class="st1" d="M122.2,78.5c0-1.4,1.1-2.3,2.3-2.3c1.2,0,2.3,1,2.3,2.3c0,1.4-1.1,2.3-2.3,2.3
		C123.3,80.8,122.2,79.9,122.2,78.5 M123,78.5c0,0.9,0.7,1.7,1.5,1.7c0.8,0,1.5-0.7,1.5-1.7c0-0.9-0.7-1.7-1.5-1.7
		C123.7,76.9,123,77.6,123,78.5"/>
	<path class="st1" d="M130.1,76.2h2c1.1,0,2,1.1,2,2.3c0,1.3-0.9,2.3-2,2.3h-2V76.2z M130.9,80.2h1c0.8,0,1.4-0.8,1.4-1.7
		c0-0.9-0.6-1.7-1.4-1.7h-1V80.2z"/>
	<polygon class="st1" points="138.7,76.2 138.7,76.9 136,76.9 136,78.2 138.2,78.2 138.2,78.8 136,78.8 136,80.2 138.7,80.2 
		138.7,80.9 135.2,80.9 135.2,76.2 	"/>
	<polygon class="st1" points="145.4,76.2 145.4,76.9 142.7,76.9 142.7,78.2 145,78.2 145,78.8 142.7,78.8 142.7,80.2 145.4,80.2 
		145.4,80.9 141.9,80.9 141.9,76.2 	"/>
	<polygon class="st1" points="146.2,76.2 147.1,76.2 148.3,77.9 149.4,76.2 150.4,76.2 148.7,78.6 150.3,80.9 149.4,80.9 
		148.3,79.3 147.2,80.9 146.2,80.9 147.8,78.6 	"/>
	<path class="st1" d="M153.1,76.2c0.7,0,1.5,0.4,2,1.1l-0.6,0.4c-0.4-0.6-0.9-0.8-1.3-0.8c-0.9,0-1.5,0.8-1.5,1.7s0.7,1.7,1.5,1.7
		c0.4,0,1-0.3,1.3-0.8l0.6,0.4c-0.4,0.7-1.2,1.1-2,1.1c-1.2,0-2.3-1-2.3-2.3C150.7,77.2,151.8,76.2,153.1,76.2"/>
	<polygon class="st1" points="159.6,76.2 159.6,76.9 156.9,76.9 156.9,78.2 159.2,78.2 159.2,78.8 156.9,78.8 156.9,80.2 
		159.6,80.2 159.6,80.9 156.1,80.9 156.1,76.2 	"/>
	<polygon class="st1" points="164,80.2 164,80.8 160.8,80.8 160.8,76.2 161.6,76.2 161.6,80.2 	"/>
	<path class="st1" d="M168.4,76.2v0.7h-2.7v1.3h2.3v0.6h-2.3v1.3h2.7v0.7H165v-4.7H168.4z M165.7,75.5l1-0.5l1,0.5l-0.2,0.4
		l-0.8-0.3l-0.8,0.3L165.7,75.5z"/>
	<polygon class="st1" points="169.6,80.8 169.6,76.2 170.6,76.2 173,79.7 173,76.2 173.7,76.2 173.7,80.8 172.8,80.8 170.4,77.3 
		170.4,80.8 	"/>
	<path class="st1" d="M177.1,76.2c0.7,0,1.5,0.4,2,1.1l-0.6,0.4c-0.4-0.6-0.9-0.8-1.3-0.8c-0.9,0-1.5,0.8-1.5,1.7s0.7,1.7,1.5,1.7
		c0.4,0,1-0.3,1.3-0.8l0.6,0.4c-0.4,0.7-1.2,1.1-2,1.1c-1.2,0-2.3-1-2.3-2.3C174.8,77.2,175.9,76.2,177.1,76.2"/>
	<rect x="180.2" y="76.2" class="st1" width="0.8" height="4.7"/>
	<path class="st1" d="M183.6,76.2h0.9l1.8,4.7h-0.9l-0.3-0.9H183l-0.3,0.9h-0.9L183.6,76.2z M183.2,79.3h1.7l-0.9-2.3L183.2,79.3z"
		/>
	<polygon class="st1" points="192.8,76.2 192.8,76.9 190.1,76.9 190.1,78.2 192.4,78.2 192.4,78.8 190.1,78.8 190.1,80.2 
		192.8,80.2 192.8,80.9 189.3,80.9 189.3,76.2 	"/>
	<polygon class="st1" points="194.9,76.2 196.6,79.9 198.3,76.2 199.2,76.2 199.2,80.8 198.4,80.8 198.4,77.4 196.9,80.8 
		196.3,80.8 194.8,77.4 194.8,80.8 194,80.8 194,76.2 	"/>
	<polygon class="st1" points="202.2,76.9 202.2,76.2 206.1,76.2 206.1,76.9 204.5,76.9 204.5,80.9 203.7,80.9 203.7,76.9 	"/>
	<polygon class="st1" points="210.5,76.2 210.5,76.9 207.9,76.9 207.9,78.2 210.1,78.2 210.1,78.8 207.9,78.8 207.9,80.2 
		210.5,80.2 210.5,80.9 207.1,80.9 207.1,76.2 	"/>
	<path class="st1" d="M213.7,76.2c0.7,0,1.5,0.4,2,1.1l-0.6,0.4c-0.4-0.6-0.9-0.8-1.3-0.8c-0.9,0-1.5,0.8-1.5,1.7s0.7,1.7,1.5,1.7
		c0.4,0,1-0.3,1.3-0.8l0.6,0.4c-0.4,0.7-1.2,1.1-2,1.1c-1.2,0-2.3-1-2.3-2.3C211.4,77.2,212.5,76.2,213.7,76.2"/>
	<polygon class="st1" points="216.7,80.8 216.7,76.2 217.6,76.2 220,79.7 220,76.2 220.8,76.2 220.8,80.8 219.9,80.8 217.5,77.3 
		217.5,80.8 	"/>
	<path class="st1" d="M221.9,78.5c0-1.4,1.1-2.3,2.3-2.3c1.2,0,2.3,1,2.3,2.3c0,1.4-1.1,2.3-2.3,2.3C223,80.8,221.9,79.9,221.9,78.5
		 M222.7,78.5c0,0.9,0.7,1.7,1.5,1.7c0.8,0,1.5-0.7,1.5-1.7c0-0.9-0.7-1.7-1.5-1.7C223.4,76.9,222.7,77.6,222.7,78.5"/>
	<polygon class="st1" points="230.9,80.2 230.9,80.8 227.7,80.8 227.7,76.2 228.5,76.2 228.5,80.2 	"/>
	<path class="st1" d="M231.3,78.5c0-1.4,1.1-2.3,2.3-2.3c1.2,0,2.3,1,2.3,2.3c0,1.4-1.1,2.3-2.3,2.3
		C232.4,80.8,231.3,79.9,231.3,78.5 M232.1,78.5c0,0.9,0.7,1.7,1.5,1.7c0.8,0,1.5-0.7,1.5-1.7c0-0.9-0.7-1.7-1.5-1.7
		C232.8,76.9,232.1,77.6,232.1,78.5"/>
	<path class="st1" d="M236.9,78.5c0-1.3,1.1-2.3,2.3-2.3c0.6,0,1.4,0.3,2,1.1l-0.6,0.4c-0.3-0.6-0.8-0.8-1.3-0.8
		c-0.8,0-1.5,0.7-1.5,1.7c0,1,0.7,1.7,1.5,1.7c0.5,0,1-0.3,1.2-0.7v-0.7H239v-0.6h2.2v1.5c-0.4,0.7-1.2,1.1-2,1.1
		C238,80.8,236.9,79.8,236.9,78.5"/>
	<rect x="242.4" y="76.2" class="st1" width="0.8" height="4.7"/>
	<path class="st1" d="M245.9,76.2h0.9l1.8,4.7h-0.9l-0.3-0.9h-2.1l-0.3,0.9h-0.9L245.9,76.2z M245.5,79.3h1.7l-0.9-2.3L245.5,79.3z"
		/>
	<path class="st1" d="M249.8,79.5c0,0.4,0.4,0.7,1,0.7c0.5,0,1-0.3,1-0.7c0-1.1-2.8-0.4-2.8-2c0-0.7,0.8-1.3,1.7-1.3
		c1,0,1.7,0.6,1.7,1.3h-0.8c0-0.3-0.4-0.6-1-0.6c-0.5,0-0.9,0.2-0.9,0.6c0,1.1,2.8,0.3,2.8,2c0,0.8-0.9,1.3-1.8,1.3
		c-1,0-1.8-0.6-1.8-1.4H249.8z"/>
	<path class="st1" d="M256.5,79.5c0,0.4,0.4,0.7,1,0.7c0.5,0,1-0.3,1-0.7c0-1.1-2.8-0.4-2.8-2c0-0.7,0.8-1.3,1.7-1.3
		c1,0,1.7,0.6,1.7,1.3h-0.8c0-0.3-0.4-0.6-1-0.6c-0.5,0-0.9,0.2-0.9,0.6c0,1.1,2.8,0.3,2.8,2c0,0.8-0.9,1.3-1.8,1.3
		c-1,0-1.8-0.6-1.8-1.4H256.5z"/>
	<path class="st1" d="M260.1,78.5c0-1.4,1.1-2.3,2.3-2.3c1.2,0,2.3,1,2.3,2.3c0,1.4-1.1,2.3-2.3,2.3
		C261.3,80.8,260.1,79.9,260.1,78.5 M260.9,78.5c0,0.9,0.7,1.7,1.5,1.7c0.8,0,1.5-0.7,1.5-1.7c0-0.9-0.7-1.7-1.5-1.7
		C261.6,76.9,260.9,77.6,260.9,78.5"/>
	<path class="st1" d="M268,76.2c0.7,0,1.5,0.4,2,1.1l-0.6,0.4c-0.4-0.6-0.9-0.8-1.3-0.8c-0.9,0-1.5,0.8-1.5,1.7s0.7,1.7,1.5,1.7
		c0.4,0,1-0.3,1.3-0.8l0.6,0.4c-0.4,0.7-1.2,1.1-2,1.1c-1.2,0-2.3-1-2.3-2.3C265.7,77.2,266.8,76.2,268,76.2"/>
	<rect x="271.1" y="76.2" class="st1" width="0.8" height="4.7"/>
	<path class="st1" d="M274.5,76.2h0.9l1.8,4.7h-0.9L276,80h-2.1l-0.3,0.9h-0.9L274.5,76.2z M274.1,79.3h1.7L275,77L274.1,79.3z"/>
	<rect x="278.1" y="76.2" class="st1" width="0.8" height="4.7"/>
	<path class="st1" d="M280.7,79.5c0,0.4,0.4,0.7,1,0.7c0.5,0,1-0.3,1-0.7c0-1.1-2.8-0.4-2.8-2c0-0.7,0.8-1.3,1.7-1.3
		c1,0,1.7,0.6,1.7,1.3h-0.8c0-0.3-0.4-0.6-1-0.6c-0.5,0-0.9,0.2-0.9,0.6c0,1.1,2.8,0.3,2.8,2c0,0.8-0.9,1.3-1.8,1.3
		c-1,0-1.8-0.6-1.8-1.4H280.7z"/>
	<g>
		
			<linearGradient id="SVGID_1_" gradientUnits="userSpaceOnUse" x1="1023.9518" y1="1351.3987" x2="1026.0076" y2="1351.3987" gradientTransform="matrix(42.8144 -46.7971 -46.7971 -42.8144 19406.2461 105876.7813)">
			<stop  offset="0" style="stop-color:#ED2129"/>
			<stop  offset="1" style="stop-color:#F9C620"/>
		</linearGradient>
		<path class="st2" d="M68.5,76.3c-0.1-1.4-0.2-2.5,1-3.2c0.8-0.5,1.4-1,1.6-1.6c0.3-1.2-0.7-2.4-0.8-3.1c0-0.8,1.2-1.5,1.4-2.3
			c0.2-1-1-2.2-0.7-3.1c0.8-2.8,8-2.4,7.8-4.8c-0.5-3.8-4.2-6.3-6.3-10.2c-1.9-3.4-1.5-3.3-0.9-7.3c3.1-20-14.4-33.3-27.9-36.8
			l5.1,4.5c1.6,0.6,2.8,2.2,2.8,4.1c0,0.1,0,0.3,0,0.4l4,13.5c0.9,1,1.5,2.3,1.5,3.8c0,2.3-1.4,4.2-3.4,5.1l-3.1,4.1l3.5,5.9
			c1.6,0.8,2.7,2.4,2.7,4.2c0,1.6-0.9,3.1-2.1,3.9l-8.4,15.7c0.5,1,0.9,2.2,0.9,3.5c0,0.5-0.1,1.1-0.2,1.6L57.9,85
			c3.3,0.1,7,0.3,9.7-1.9C69.2,81.8,68.6,78.8,68.5,76.3z"/>
		
			<linearGradient id="SVGID_2_" gradientUnits="userSpaceOnUse" x1="1023.9518" y1="1351.4949" x2="1026.0076" y2="1351.4949" gradientTransform="matrix(42.8144 -46.7971 -46.7971 -42.8144 19401.9824 105872.875)">
			<stop  offset="0" style="stop-color:#ED2129"/>
			<stop  offset="1" style="stop-color:#F9C620"/>
		</linearGradient>
		<path class="st3" d="M38.1,93.1c1.5,0,2.7-1.2,2.7-2.7c0-1.5-1.2-2.7-2.7-2.7c-0.6,0-1.1,0.2-1.5,0.5L30,83.5
			c0.1-0.3,0.1-0.6,0.1-0.9c0-0.4-0.1-0.7-0.2-1.1l6.8-5.3c0.8,0.6,1.8,1,2.8,1c0.9,0,1.7-0.3,2.4-0.7l11.3,11.2
			c-0.1,0.3-0.2,0.7-0.2,1.1c0,1.5,1.2,2.7,2.7,2.7s2.7-1.2,2.7-2.7c0-1.5-1.2-2.7-2.7-2.7c-0.4,0-0.8,0.1-1.1,0.2L43.4,75.1
			c0.4-0.7,0.7-1.5,0.7-2.4c0-1.4-0.6-2.6-1.5-3.4L51.9,52c0,0,0.1,0,0.1,0c1.3,0,2.3-1,2.3-2.3c0-1.3-1-2.3-2.3-2.3
			c-0.1,0-0.1,0-0.2,0l-4.9-8.6l4-5.8c0.2,0,0.4,0.1,0.6,0.1c1.5,0,2.7-1.2,2.7-2.7c0-1.4-1-2.5-2.4-2.7l-3.4-13.2
			c0.5-0.4,0.9-1.1,0.9-1.8c0-1.3-1-2.3-2.3-2.3c-0.4,0-0.8,0.1-1.2,0.3L38,5.4c0.1-0.4,0.2-0.8,0.2-1.3c0-2.1-1.7-3.8-3.8-3.8
			c-2,0-3.6,1.5-3.8,3.3c-6.3,1-12,3.2-16.6,6.2C13.3,9.4,12.5,9,11.6,9c-2.1,0-3.8,1.7-3.8,3.8c0,0.7,0.2,1.3,0.5,1.8
			c-2.1,2.2-3.8,4.7-5,7.4c-1.9,4.1-2.7,8.8-2.2,13.9c0.2,2.1,0.6,4.2,1.3,6.4c-0.9,0.6-1.6,1.7-1.6,3c0,2,1.6,3.6,3.6,3.6
			c0.2,0,0.3,0,0.5,0C6,51.4,7.5,54,9.4,56.7c-0.4,0.6-0.7,1.3-0.7,2c0,1.9,1.5,3.4,3.4,3.4c1.9,0,3.4-1.5,3.4-3.4
			c0-0.1,0-0.2,0-0.3l14.9-6.1c0.4,0.7,1,1.3,1.7,1.8l-5.7,12.1l-14.1,3.1c-0.5-0.7-1.3-1.2-2.3-1.2c-1.5,0-2.7,1.2-2.7,2.7
			c0,1.5,1.2,2.7,2.7,2.7c1.4,0,2.5-1,2.7-2.3L26,68.3v11.3c-1.3,0.4-2.2,1.6-2.2,3c0,1.7,1.4,3.1,3.1,3.1c0.7,0,1.4-0.2,1.9-0.6
			l6.6,4.6c-0.1,0.2-0.1,0.4-0.1,0.7C35.4,91.9,36.6,93.1,38.1,93.1z M40.8,68.4c-0.3-0.1-0.7-0.1-1-0.2l-2.3-13.4
			c2-0.7,3.6-2.4,4-4.6l8.4,0.3c0.1,0.2,0.2,0.3,0.3,0.5L40.8,68.4z M50.1,48.3c-0.1,0.1-0.1,0.2-0.2,0.3l-8.4-0.3
			c-0.4-3-2.9-5.3-6-5.3h-0.1l-2.8-16.5c0.1,0,0.2-0.1,0.3-0.1L45,39.3L50.1,48.3z M46.6,15L50,28.2c-0.7,0.5-1.1,1.3-1.1,2.2
			c0,0.6,0.2,1.1,0.5,1.5l-3.6,5.3L34.3,25.1c0.4-0.6,0.6-1.3,0.6-2c0-0.4-0.1-0.8-0.2-1.2l11.1-7.2C46,14.8,46.3,14.9,46.6,15z
			 M30.9,5.6C31.4,7,32.8,8,34.4,8c1,0,1.9-0.4,2.5-1l7.8,5.3c0,0.1,0,0.3,0,0.4c0,0.1,0,0.2,0,0.3l-11.1,7.2c-0.7-0.6-1.6-1-2.6-1
			c-1.1,0-2.1,0.5-2.8,1.3l-12.9-6.8c0.1-0.3,0.1-0.6,0.1-0.9c0-0.5-0.1-1-0.3-1.4C19.5,8.6,24.9,6.6,30.9,5.6z M14.4,15.4l12.9,6.8
			c-0.1,0.3-0.1,0.6-0.1,0.9c0,0.6,0.1,1.1,0.4,1.6L7.6,41.2l7.6-13.5c0.2,0,0.4,0,0.5,0c1.6,0,3-1.3,3-3s-1.3-3-3-3h0l-2-5.8
			C14,15.9,14.2,15.7,14.4,15.4z M4.9,22.9c1.1-2.5,2.7-4.7,4.6-6.8c0.6,0.4,1.3,0.6,2,0.6c0.1,0,0.2,0,0.3,0l2,5.8
			c-0.7,0.5-1.1,1.4-1.1,2.4c0,0.8,0.3,1.5,0.8,2l-8.4,15c-0.3-0.1-0.6-0.1-0.8-0.1c-0.1,0-0.1,0-0.2,0c-0.6-2-1-4-1.2-5.9
			C2.4,31,3.2,26.7,4.9,22.9z M10.9,55.5c-1.8-2.5-3.3-5-4.4-7.5c0.8-0.7,1.3-1.7,1.3-2.8c0-0.5-0.1-1-0.3-1.5l20.4-16.9l-7.1,13.4
			c-0.2,0-0.3,0-0.5,0c-1.6,0-3,1.3-3,3c0,0.8,0.3,1.5,0.8,2l-5.4,10.1c-0.2,0-0.4-0.1-0.7-0.1C11.7,55.3,11.3,55.4,10.9,55.5z
			 M14.7,56.6c-0.1-0.1-0.2-0.2-0.3-0.3l5.4-10.1c0.2,0,0.3,0,0.5,0c0.9,0,1.7-0.4,2.3-1.1l7,2.7c-0.1,0.4-0.1,0.8-0.1,1.2
			c0,0.5,0.1,0.9,0.2,1.4L14.7,56.6z M30.3,46.1l-7-2.7l0-0.1c0-0.8-0.3-1.5-0.8-2l7.7-14.4c0.2,0,0.4,0.1,0.6,0.1l2.8,16.5
			C32.2,43.9,31,44.8,30.3,46.1z M28.8,80c-0.2-0.2-0.5-0.3-0.8-0.4V67.3l5.9-12.3c0.5,0.2,1.1,0.2,1.7,0.2h0.1l2.3,13.4
			c-1.6,0.7-2.8,2.3-2.8,4.1c0,0.7,0.2,1.3,0.4,1.9L28.8,80z"/>
	</g>
</g>
</svg>
