<svg width="122" height="28" viewBox="0 0 122 28" fill="none" xmlns="http://www.w3.org/2000/svg">
<path d="M12.3801 27.4593C9.93089 27.4593 7.77944 26.9233 5.92578 25.8513C4.07211 24.7793 2.62044 23.2234 1.57078 21.1911C0.521111 19.1588 0 16.717 0 13.8658C0 11.0146 0.521111 8.57278 1.57078 6.54044C2.62044 4.50811 4.07211 2.95966 5.92578 1.88022C7.77944 0.808219 9.93089 0.272217 12.3801 0.272217C14.8293 0.272217 16.9808 0.808219 18.8344 1.88022C20.6881 2.95222 22.1398 4.50811 23.1894 6.54044C24.2391 8.57278 24.7602 11.0146 24.7602 13.8658C24.7602 16.717 24.2391 19.1588 23.1894 21.1911C22.1398 23.2234 20.6881 24.7793 18.8344 25.8513C16.9808 26.9233 14.8293 27.4593 12.3801 27.4593ZM12.3801 21.9281C14.3231 21.9281 15.879 21.2507 17.0403 19.9032C18.2017 18.5558 18.7823 16.5383 18.7823 13.8658C18.7823 11.1932 18.2017 9.17577 17.0403 7.82833C15.879 6.48088 14.3231 5.80344 12.3801 5.80344C10.4371 5.80344 8.88122 6.48088 7.71989 7.82833C6.55856 9.17577 5.97789 11.1932 5.97789 13.8658C5.97789 16.5383 6.55856 18.5558 7.71989 19.9032C8.88122 21.2507 10.4297 21.9281 12.3801 21.9281Z" fill="#2D2D2D"/>
<path d="M28.4678 27.3998V0.331787H34.334V27.3998H28.4678ZM35.9197 18.258V12.5705H43.7214C45.1582 12.5705 46.2004 12.2876 46.8481 11.7292C47.4883 11.1709 47.8159 10.352 47.8159 9.28001C47.8159 8.20801 47.4958 7.39656 46.8481 6.84568C46.2079 6.29479 45.1657 6.01934 43.7214 6.01934H35.9197V0.331787H44.0639C47.2203 0.331787 49.6323 1.14323 51.2924 2.76612C52.96 4.38901 53.7938 6.55535 53.7938 9.28001C53.7938 12.0047 52.96 14.1785 51.2924 15.8088C49.6249 17.4466 47.2129 18.258 44.0639 18.258H35.9197ZM47.9201 27.3998L41.0638 15.6673H47.1236L54.5084 27.3998H47.9201Z" fill="#2D2D2D"/>
<path d="M57.501 27.5041V0.235107H63.3672V27.5041H57.501Z" fill="#2D2D2D"/>
<path d="M79.4621 27.4593C77.0129 27.4593 74.8615 26.9233 73.0078 25.8513C71.1541 24.7793 69.7025 23.2234 68.6528 21.1911C67.6031 19.1588 67.082 16.717 67.082 13.8658C67.082 11.0146 67.6031 8.57278 68.6528 6.54044C69.7025 4.50811 71.1541 2.95966 73.0078 1.88022C74.8615 0.808219 77.0129 0.272217 79.4621 0.272217C81.9114 0.272217 84.0628 0.808219 85.9165 1.88022C87.7701 2.95222 89.2218 4.50811 90.2715 6.54044C91.3211 8.57278 91.8422 11.0146 91.8422 13.8658C91.8422 16.717 91.3211 19.1588 90.2715 21.1911C89.2218 23.2234 87.7701 24.7793 85.9165 25.8513C84.0628 26.9233 81.9114 27.4593 79.4621 27.4593ZM79.4621 21.9281C81.4051 21.9281 82.961 21.2507 84.1224 19.9032C85.2837 18.5558 85.8644 16.5383 85.8644 13.8658C85.8644 11.1932 85.2837 9.17577 84.1224 7.82833C82.961 6.48088 81.4051 5.80344 79.4621 5.80344C77.5191 5.80344 75.9633 6.48088 74.8019 7.82833C73.6406 9.17577 73.0599 11.1932 73.0599 13.8658C73.0599 16.5383 73.6406 18.5558 74.8019 19.9032C75.9633 21.2507 77.5117 21.9281 79.4621 21.9281Z" fill="#2D2D2D"/>
<path d="M110.416 0.339355L102.778 22.2781L100.873 27.7647H107.156L114.786 5.81847L116.603 0.339355H110.416Z" fill="#8EF49F"/>
<path d="M101.401 0.339355H95.5571V27.7647H99.4952L101.401 22.2781V0.339355Z" fill="#2D2D2D"/>
<path d="M117.95 0.339355L116.037 5.81847V27.7647H121.881V0.339355H117.95Z" fill="#2D2D2D"/>
</svg>
